<svg width="47" height="18" viewBox="0 0 47 18" fill="none" xmlns="http://www.w3.org/2000/svg">
<path d="M7.68 3.56H7.44C7.44 3.128 7.4 2.728 7.32 2.36C7.24 1.976 7.128 1.64 6.984 1.352C6.84 1.064 6.672 0.84 6.48 0.68C6.288 0.519999 6.088 0.439999 5.88 0.439999H3.6V8.48H5.04C5.312 8.48 5.536 8.296 5.712 7.928C5.904 7.544 6 7.088 6 6.56H6.24V10.64H6C6 10.112 5.904 9.664 5.712 9.296C5.536 8.912 5.312 8.72 5.04 8.72H3.6V16.76H5.88C6.088 16.76 6.288 16.68 6.48 16.52C6.672 16.36 6.84 16.136 6.984 15.848C7.128 15.56 7.24 15.232 7.32 14.864C7.4 14.48 7.44 14.072 7.44 13.64H7.68V17H0.72V16.76H1.68V0.439999H0.72V0.199999H7.68V3.56ZM9.27469 17V16.76H10.2347V0.439999H9.27469V0.199999H13.1147V0.439999H12.1547V16.76H14.4347C14.6427 16.76 14.8427 16.68 15.0347 16.52C15.2267 16.36 15.3947 16.136 15.5387 15.848C15.6827 15.56 15.7947 15.232 15.8747 14.864C15.9547 14.48 15.9947 14.072 15.9947 13.64H16.2347V17H9.27469ZM21.2006 0.199999V0.439999H20.2406V16.76H21.2006V17H17.3606V16.76H18.3206V0.439999H17.3606V0.199999H21.2006ZM25.9461 9.776L23.2581 16.76H24.1701V17H21.8181V16.76C22.2661 16.76 22.6101 16.672 22.8501 16.496C23.1061 16.304 23.2741 16.096 23.3541 15.872L25.8261 9.416L22.7781 0.487999H21.8181V0.199999H25.7541V0.487999H24.7941L26.9541 6.8L29.4261 0.439999H28.5141V0.199999H30.8661V0.439999C30.4181 0.439999 30.0661 0.535999 29.8101 0.727999C29.5701 0.903999 29.4101 1.104 29.3301 1.328L27.0741 7.136L30.3621 16.712H31.3461V17H27.4101V16.712H28.3461L25.9461 9.776ZM35.6147 0.199999V0.439999H34.6547V16.76H35.6147V17H31.7747V16.76H32.7347V0.439999H31.7747V0.199999H35.6147ZM39.9281 8.84V16.76H40.8881V17H37.0481V16.76H38.0081V0.439999H37.0481V0.199999H40.8881C41.5281 0.199999 42.1121 0.303999 42.6401 0.511999C43.1841 0.704 43.6401 0.975999 44.0081 1.328C44.3921 1.68 44.6881 2.088 44.8961 2.552C45.1041 3.016 45.2081 3.512 45.2081 4.04V5C45.2081 5.896 44.9201 6.688 44.3441 7.376C43.7681 8.048 43.0001 8.496 42.0401 8.72C43.0001 8.944 43.7681 9.4 44.3441 10.088C44.9201 10.76 45.2081 11.544 45.2081 12.44V15.68C45.2081 15.904 45.2561 16.096 45.3521 16.256C45.4481 16.416 45.5601 16.496 45.6881 16.496C45.8161 16.496 45.9281 16.416 46.0241 16.256C46.1201 16.096 46.1681 15.904 46.1681 15.68H46.4081C46.4081 16.112 46.2561 16.48 45.9521 16.784C45.6481 17.088 45.2801 17.24 44.8481 17.24C44.4161 17.24 44.0481 17.088 43.7441 16.784C43.4401 16.48 43.2881 16.112 43.2881 15.68V12.44C43.2881 11.944 43.2241 11.48 43.0961 11.048C42.9681 10.6 42.7921 10.216 42.5681 9.896C42.3601 9.576 42.1121 9.32 41.8241 9.128C41.5361 8.936 41.2241 8.84 40.8881 8.84H39.9281ZM39.9281 0.439999V8.6H40.8881C41.2241 8.6 41.5361 8.504 41.8241 8.312C42.1121 8.12 42.3601 7.864 42.5681 7.544C42.7921 7.224 42.9681 6.848 43.0961 6.416C43.2241 5.968 43.2881 5.496 43.2881 5V4.04C43.2881 3.544 43.2241 3.08 43.0961 2.648C42.9681 2.2 42.7921 1.816 42.5681 1.496C42.3601 1.176 42.1121 0.92 41.8241 0.727999C41.5361 0.535999 41.2241 0.439999 40.8881 0.439999H39.9281Z" fill="#7A8C51"/>
</svg>
