<svg width="32" height="32" viewBox="0 0 32 32" fill="none" xmlns="http://www.w3.org/2000/svg">
<g id="Base Icons - Rounded">
<path id="Vector" d="M16 3C8.82062 3 3 8.82062 3 16C3 23.1794 8.82062 29 16 29C23.1794 29 29 23.1794 29 16C29 8.82062 23.1794 3 16 3ZM18.2069 21.2931C18.3036 21.3851 18.381 21.4954 18.4345 21.6178C18.4879 21.7401 18.5163 21.8718 18.518 22.0053C18.5197 22.1388 18.4947 22.2712 18.4444 22.3949C18.3941 22.5185 18.3196 22.6308 18.2252 22.7252C18.1308 22.8196 18.0185 22.8941 17.8949 22.9444C17.7712 22.9947 17.6388 23.0197 17.5053 23.018C17.3718 23.0163 17.2401 22.9879 17.1178 22.9345C16.9954 22.881 16.8851 22.8036 16.7931 22.7069L10.7931 16.7069C10.6057 16.5194 10.5005 16.2651 10.5005 16C10.5005 15.7349 10.6057 15.4806 10.7931 15.2931L16.7931 9.29313C16.9822 9.11351 17.2339 9.01485 17.4947 9.01819C17.7555 9.02152 18.0046 9.1266 18.189 9.311C18.3734 9.4954 18.4785 9.74454 18.4818 10.0053C18.4852 10.2661 18.3865 10.5178 18.2069 10.7069L12.9144 16L18.2069 21.2931Z" fill="#22401E"/>
</g>
</svg>
