<svg xmlns="http://www.w3.org/2000/svg" width="70" height="70" viewBox="0 0 70 70" fill="none">
  <path d="M17.4592 52.5405C16.2835 51.3648 13.9322 53.3242 13.9322 53.3242L4.52697 62.3376L3.7432 61.5538L1 64.297L5.70263 68.9997L8.05394 66.6483L7.27017 65.8646L17.0673 55.6755C17.0673 55.6755 18.6349 53.7161 17.4592 52.5405ZM17.4592 52.5405L36.6616 33.338M36.6616 33.338C37.1861 31.7974 37.3017 30.8617 37.1168 29.0277M36.6616 33.338C38.1304 32.7242 38.998 32.6592 40.5804 32.7667M41.3642 7.47358C42.4116 6.42614 44.2192 5.03318 46.4587 3.80776M41.3642 7.47358L61.9465 27.852M41.3642 7.47358C40.2811 8.55675 38.7915 10.3421 37.5082 12.5685M37.1168 29.0277C37.6424 29.8186 38.2705 30.6039 39.0129 31.3786C39.5214 31.9092 40.0449 32.37 40.5804 32.7667M37.1168 29.0277C36.9555 28.785 36.8039 28.5417 36.6616 28.2981M40.5804 32.7667C40.839 32.9582 41.1004 33.1347 41.3642 33.297M34.8374 21.19L55.4721 1.02118M34.8374 21.19C34.7701 23.5054 35.2722 25.92 36.6616 28.2981M34.8374 21.19C34.8645 20.2565 34.9841 19.3391 35.1754 18.4468M55.4721 1.02118C57.8536 0.895057 60.2723 1.32044 62.526 2.61323M55.4721 1.02118C54.6818 1.06304 53.8955 1.16563 53.1208 1.31742M36.6616 28.2981C37.0258 28.2547 54.0563 11.1568 62.526 2.61323M62.526 2.61323C63.4747 3.1574 64.3941 3.85527 65.2692 4.73038C66.0564 5.51751 66.7037 6.32616 67.2287 7.14705M41.3642 33.297L67.2287 7.14705M41.3642 33.297C43.8464 34.8237 46.5491 35.0861 49.2019 34.6248M67.2287 7.14705C68.7004 9.4484 69.2108 11.8461 69.145 14.136M49.2019 34.6248L69.145 14.136M49.2019 34.6248C49.8595 34.5105 50.514 34.3517 51.1614 34.1567M69.145 14.136C69.1179 15.0812 68.9926 16.008 68.7962 16.9022M53.1208 1.31742L68.7962 16.9022M53.1208 1.31742C50.7158 1.78861 48.4214 2.73384 46.4587 3.80776M68.7962 16.9022C68.2434 19.4194 67.1275 21.6775 66.053 23.3564M46.4587 3.80776L66.053 23.3564M66.053 23.3564C65.3151 24.5093 64.5967 25.3892 64.0936 25.8922C63.6882 26.2975 62.9451 27.0057 61.9465 27.852M61.9465 27.852C60.5854 29.0056 58.7496 30.416 56.6478 31.6661M37.5082 12.5685L56.6478 31.6661M37.5082 12.5685C36.5092 14.3016 35.6353 16.3021 35.1754 18.4468M56.6478 31.6661C54.9552 32.6728 53.0901 33.5756 51.1614 34.1567M35.1754 18.4468L51.1614 34.1567" stroke="#FCFBFA" stroke-width="0.7"/>
  <path d="M18.8129 63.2807L17.4383 63.4525M18.8129 63.2807L24.5324 61.1624C24.5324 61.1624 26.227 61.1624 26.4388 61.7978C26.6507 62.4333 25.1678 63.4925 25.1678 63.4925M18.8129 63.2807L19.0876 66.3018M17.7538 67.9409C17.1183 67.9409 15 68.1527 15 66.0344C15 63.9161 17.1183 63.4925 17.1183 63.4925L17.4383 63.4525M17.7538 67.9409C18.3893 67.9409 19.2366 67.9409 19.2366 67.9409M17.7538 67.9409L17.4383 63.4525M19.2366 67.9409L19.0876 66.3018M19.2366 67.9409L25.3797 69.0001C25.3797 69.0001 26.8625 68.5764 26.8625 67.9409C26.8625 67.3054 25.3797 66.4581 25.3797 66.4581M25.1678 63.4925L19.0248 65.1871M25.1678 63.4925C25.1678 63.4925 27.2861 64.3398 27.2861 64.7635C27.2861 65.1871 25.3797 66.4581 25.3797 66.4581M25.3797 66.4581L19.0876 66.3018" stroke="#FCFBFA" stroke-width="0.5"/>
</svg>