<svg xmlns="http://www.w3.org/2000/svg" width="136" height="111" viewBox="0 0 136 111" fill="none">
  <path d="M13.6011 67.6938H1V52.0192H14.5232M13.6011 67.6938V76.6068H19.748M13.6011 67.6938H41.5695M41.5695 67.6938H135.002V52.0192H116.254M41.5695 67.6938V76.6068H34.8079M19.748 76.6068V109.8M19.748 76.6068H34.8079M19.748 109.8H34.8079M19.748 109.8H1M34.8079 109.8H100.887M34.8079 109.8V101.502M34.8079 76.6068V85.8271M100.887 76.6068H94.7401V67.6938H122.709V76.6068H115.947M100.887 76.6068H115.947M100.887 76.6068V85.8271M100.887 109.8H115.947M100.887 109.8V101.502M115.947 109.8V76.6068M115.947 109.8H135.002M34.8079 85.8271H100.887M34.8079 85.8271V101.502M100.887 85.8271V101.502M34.8079 101.502H100.887M14.5232 52.0192L11.1424 45.565H15.4452M14.5232 52.0192H69.5379M69.5379 52.0192L72.9187 45.565H69.5379M69.5379 52.0192H77.5288M15.4452 45.565H69.5379M15.4452 45.565C15.4452 45.565 15.7576 42.4803 17.2313 38.4961M69.5379 45.565C69.5379 45.565 69.0047 42.4803 67.2816 38.4961M17.2313 38.4961C19.8921 31.3021 26.3391 21.1752 41.5695 20.9774C56.9047 20.7782 64.1095 31.1615 67.2816 38.4961M17.2313 38.4961H67.2816M77.5288 52.0192H98.4283M77.5288 52.0192V43.1062M82.4463 14.8305C78.1435 14.8305 77.5288 18.5186 77.5288 20.9774C77.5288 23.4362 77.5288 26.2023 77.5288 26.2023M82.4463 14.8305C86.7492 14.8305 89.2079 14.8305 93.5108 14.8305M82.4463 14.8305V10.2203M93.5108 14.8305C97.8136 14.8305 98.4283 18.5186 98.4283 20.9774C98.4283 23.4362 98.4283 26.2023 98.4283 26.2023M93.5108 14.8305V10.2203M98.4283 52.0192V43.1062M98.4283 52.0192H116.254M77.5288 26.2023H98.4283M77.5288 26.2023V43.1062M98.4283 26.2023V43.1062M77.5288 43.1062H98.4283M82.4463 10.2203H93.5108M82.4463 10.2203H79.3729V1H95.6622V10.2203H93.5108M116.254 40.3401C125.782 40.3401 125.782 32.3492 125.782 32.3492L123.323 19.1333H107.956L106.112 32.3492C106.112 32.3492 106.727 40.3401 116.254 40.3401ZM116.254 40.3401V52.0192" stroke="#FCFBFA" stroke-width="0.7"/>
</svg>