<svg xmlns="http://www.w3.org/2000/svg" width="71" height="70" viewBox="0 0 71 70" fill="none">
  <path d="M22.732 44.4639H19.2268V37.4536H21.6804M22.732 44.4639H27.9897M22.732 44.4639C22.732 44.4639 23.8219 46.1896 24.9383 48.6701M48.4175 44.4639C48.4175 44.4639 47.3276 46.1896 46.2111 48.6701M27.9897 44.4639L43.7664 59.8866M27.9897 44.4639H37.1031M43.7664 59.8866C43.7762 58.9676 43.8053 58.025 43.8608 57.0825C43.9569 55.4489 44.3428 53.7626 44.8523 52.1753M43.7664 59.8866C43.7612 60.3813 43.7616 60.8691 43.7664 61.3465M37.1031 44.4639L44.8523 52.1753M37.1031 44.4639H43.7664M37.1031 44.4639L26.8755 54.2783M44.8523 52.1753L26.9381 69C26.9381 69 27.3883 65.1739 27.3868 60.5876M44.8523 52.1753C45.2553 50.92 45.7356 49.7266 46.2111 48.6701M25.674 50.4227L44.2113 69C44.2113 69 43.8099 65.5883 43.7664 61.3465M25.674 50.4227C26.1441 51.6319 26.5741 52.9442 26.8755 54.2783M25.674 50.4227C25.4352 49.8084 25.1861 49.2207 24.9383 48.6701M27.3868 60.5876C27.3864 59.4504 27.3583 58.2664 27.2887 57.0825C27.2341 56.1555 27.0863 55.2115 26.8755 54.2783M27.3868 60.5876L35.701 69C35.9814 68.7196 41.1948 63.7808 43.7664 61.3465M27.3868 60.5876L43.7664 44.4639M43.7664 44.4639H52.5258V37.4536H21.6804M24.9383 48.6701H1V1H70.4021V48.6701H46.2111M46.567 12.5699C47.4633 12.3392 48.4029 12.2165 49.3711 12.2165C51.3428 12.2165 53.1956 12.7252 54.8055 13.6186M46.567 12.5699C46.567 12.5699 47.6186 17.8247 45.1649 21.3299C42.7113 24.8351 38.97 27.6392 38.97 27.6392M46.567 12.5699C43.7558 13.2934 41.3712 15.0794 39.8666 17.4742M38.97 27.6392C38.4442 26.3403 38.1546 24.9204 38.1546 23.433C38.1546 22.7142 38.2223 22.0111 38.3515 21.3299M38.97 27.6392C39.9369 30.028 41.703 32.0079 43.9367 33.2474M59.9074 19.5773C60.3475 20.7796 60.5876 22.0783 60.5876 23.433C60.5876 25.6224 59.9603 27.6653 58.8757 29.3918M59.9074 19.5773C59.9074 19.5773 54.9794 22.3814 53.2268 25.5361C51.4742 28.6907 52.1641 34.299 52.1641 34.299M59.9074 19.5773C58.9756 17.0318 57.1476 14.9182 54.8055 13.6186M52.1641 34.299C51.2712 34.5278 50.3354 34.6495 49.3711 34.6495C47.3995 34.6495 45.5466 34.1408 43.9367 33.2474M52.1641 34.299C54.9801 33.5773 57.3691 31.7898 58.8757 29.3918M43.9367 33.2474C44.0781 32.967 51.2415 20.0447 54.8055 13.6186M39.8666 17.4742L58.8757 29.3918M39.8666 17.4742C39.1381 18.6339 38.6158 19.9362 38.3515 21.3299M21.6804 37.4536V21.3299H38.3515M5.20619 11.5155V4.85567H11.1649M5.20619 37.4536V44.4639H11.1649M59.9074 4.85567H66.5464V11.5155M66.5464 37.4536V44.4639H59.9074" stroke="#FCFBFA" stroke-width="0.7"/>
</svg>