<svg xmlns="http://www.w3.org/2000/svg" width="24" height="24" viewBox="0 0 24 24" fill="none">
  <path d="M22.9875 11.262C22.935 11.1202 22.8315 11.0085 22.6995 10.9462L22.6958 10.9447L21.0323 10.1692L21.483 9.2025C21.5168 9.13275 21.5363 9.051 21.5363 8.964C21.5363 8.73975 21.4043 8.5455 21.2145 8.4555L21.2108 8.454L5.27025 1.02075C5.2005 0.986999 5.11875 0.967499 5.03175 0.967499C4.8075 0.967499 4.614 1.09875 4.524 1.2885L4.5225 1.29225L1.08075 8.67375C1.04775 8.7435 1.02825 8.82525 1.02825 8.9115C1.02825 9.13575 1.1595 9.32925 1.34925 9.42L1.353 9.4215L7.512 12.2933L5.6295 16.6875H2.0625V13.5C2.0625 13.1895 1.8105 12.9375 1.5 12.9375C1.1895 12.9375 0.9375 13.1895 0.9375 13.5V21C0.9375 21.3105 1.1895 21.5625 1.5 21.5625C1.8105 21.5625 2.0625 21.3105 2.0625 21V17.8125H6C6.23025 17.8125 6.429 17.673 6.516 17.475L6.5175 17.4713L8.53275 12.7695L17.2943 16.8547C17.3625 16.8877 17.4428 16.9072 17.5275 16.9072C17.529 16.9072 17.5298 16.9072 17.5313 16.9072C17.7555 16.9072 17.9498 16.776 18.0398 16.5855L18.0413 16.5817L18.4913 15.6165L20.1563 16.3928C20.2245 16.4258 20.3048 16.4453 20.3895 16.4453C20.391 16.4453 20.3918 16.4453 20.3933 16.4453C20.6175 16.4453 20.8118 16.314 20.9018 16.1235L20.9033 16.1197L22.9688 11.6917C23.0018 11.622 23.0213 11.5402 23.0213 11.4532C23.0213 11.3842 23.0085 11.3182 22.986 11.2567L22.9875 11.2605V11.262ZM17.259 15.5977L8.54775 11.535C8.52525 11.5162 8.50125 11.499 8.475 11.484L8.47275 11.4825C8.45475 11.4773 8.43225 11.4727 8.40975 11.469H8.40675L2.33925 8.63925L5.3055 2.27775L20.2275 9.23475L19.4423 10.9177L17.259 15.5977ZM20.121 15.1365L18.9668 14.5972L19.0988 14.3145L20.5575 11.1892L21.7118 11.727L20.121 15.1365Z" fill="#22401E"/>
</svg>