<svg xmlns="http://www.w3.org/2000/svg" width="70" height="69" viewBox="0 0 70 69" fill="none">
  <path d="M52.4461 16.7315C50.7081 15.8515 49.301 15.6891 49.301 15.6891L48.1118 16.87M52.4461 16.7315C53.5903 17.3108 54.878 18.2011 56.0021 19.5608C56.8405 20.575 57.4697 21.524 57.94 22.3574M52.4461 16.7315L62.7052 6.45649C63.6833 5.76571 64.2074 5.64356 65.0878 6.00975L68.6617 9.58365C69.3008 10.7519 68.9478 11.3007 68.215 12.2641L57.94 22.3574M57.94 22.3574C59.0579 24.3382 59.2781 25.6662 59.2781 25.6662L48.1118 36.8724M19.1595 45.6205L6.56306 58.1291C5.92745 58.9638 5.9675 59.4553 6.56306 60.3628C6.56306 60.3628 14.1555 67.8085 14.7532 68.2552C15.351 68.7019 16.4759 68.5839 17.5826 67.5106L19.1595 65.9281M19.1595 45.6205L25.477 39.347M19.1595 45.6205V29.389M25.477 39.347L30.4063 34.4521M25.477 39.347V8.39236M30.4063 34.4521L36.6455 28.2564M30.4063 34.4521V8.39236M36.6455 28.2564L41.5596 23.3765M36.6455 28.2564V8.39236M41.5596 23.3765L48.1118 16.87M41.5596 23.3765V8.39236M48.1118 16.87V6.45649H45.4314M22.3183 6.45649H19.1595V17.9228M22.3183 6.45649H25.477V8.39236M22.3183 6.45649V0.5H33.5259M45.4314 6.45649H41.5596V8.39236M45.4314 6.45649V0.5H33.5259M25.477 8.39236H30.4063M30.4063 8.39236V6.45649H33.5259M36.6455 8.39236V6.45649H33.5259M36.6455 8.39236H41.5596M33.5259 6.45649V0.5M25.477 59.588V68.2552H19.1595V65.9281M25.477 59.588L19.1595 65.9281M25.477 59.588L30.4063 54.6411M30.4063 54.6411V68.2552H36.6455V48.3797M30.4063 54.6411L36.6455 48.3797M36.6455 48.3797L41.5596 43.448M41.5596 43.448V68.2552H48.1118V36.8724M41.5596 43.448L48.1118 36.8724M19.1595 17.9228C19.1595 17.9228 18.7256 16.9259 17.5866 15.7819M19.1595 17.9228V20.1565M19.1595 29.389C16.4 31.8638 14.8435 33.2324 10.8836 33.2608C10.8836 33.2608 9.00636 33.3712 6.83201 32.5162M19.1595 29.389V20.1565M1.18079 25.8151C0.521403 22.2178 1.81276 18.3913 2.69342 17.1782C3.88259 15.5402 8.79883 11.6684 13.2662 13.1576C13.4193 13.2086 13.5688 13.2617 13.7149 13.3168M1.18079 25.8151C1.41177 27.0753 1.88215 28.3073 2.69342 29.389C2.83901 29.5832 2.9888 29.7676 3.14207 29.9428M1.18079 25.8151C1.43938 25.696 9.64459 17.4332 13.7149 13.3168M13.7149 13.3168C15.4792 13.9817 16.7316 14.9232 17.5866 15.7819M3.14207 29.9428L17.5866 15.7819M3.14207 29.9428C4.27635 31.2396 5.60174 32.0324 6.83201 32.5162M6.83201 32.5162L19.1595 20.1565" stroke="#FCFBFA" stroke-width="0.7"/>
</svg>