<svg xmlns="http://www.w3.org/2000/svg" width="36" height="36" viewBox="0 0 36 36" fill="none">
<path d="M18 3.375C9.93586 3.375 3.375 9.93586 3.375 18C3.375 26.0641 9.93586 32.625 18 32.625C26.0641 32.625 32.625 26.0641 32.625 18C32.625 9.93586 26.0641 3.375 18 3.375ZM23.2952 21.7048C23.4041 21.8082 23.4912 21.9324 23.5513 22.07C23.6114 22.2076 23.6434 22.3558 23.6453 22.506C23.6472 22.6561 23.619 22.8051 23.5625 22.9442C23.5059 23.0833 23.422 23.2097 23.3159 23.3159C23.2097 23.422 23.0833 23.5059 22.9442 23.5625C22.8051 23.619 22.6561 23.6472 22.506 23.6453C22.3558 23.6434 22.2076 23.6114 22.07 23.5513C21.9324 23.4912 21.8082 23.4041 21.7048 23.2952L18 19.5912L14.2952 23.2952C14.0825 23.4973 13.7993 23.6083 13.506 23.6045C13.2126 23.6008 12.9323 23.4826 12.7249 23.2751C12.5174 23.0677 12.3992 22.7874 12.3955 22.494C12.3917 22.2007 12.5027 21.9175 12.7048 21.7048L16.4088 18L12.7048 14.2952C12.5027 14.0825 12.3917 13.7993 12.3955 13.506C12.3992 13.2126 12.5174 12.9323 12.7249 12.7249C12.9323 12.5174 13.2126 12.3992 13.506 12.3955C13.7993 12.3917 14.0825 12.5027 14.2952 12.7048L18 16.4088L21.7048 12.7048C21.9175 12.5027 22.2007 12.3917 22.494 12.3955C22.7874 12.3992 23.0677 12.5174 23.2751 12.7249C23.4826 12.9323 23.6008 13.2126 23.6045 13.506C23.6083 13.7993 23.4973 14.0825 23.2952 14.2952L19.5912 18L23.2952 21.7048Z" fill="#22401E"/>
</svg>