<svg xmlns="http://www.w3.org/2000/svg" width="113" height="70" viewBox="0 0 113 70" fill="none">
  <path d="M22.6 50.6C25.251 50.6 27.4 48.451 27.4 45.8C27.4 44.3784 26.782 43.1011 25.8 42.2222M22.6 50.6C19.949 50.6 17.8 48.451 17.8 45.8C17.8 43.149 19.949 41 22.6 41C23.8294 41 24.9508 41.4622 25.8 42.2222M22.6 50.6L55.4 53.8M55.4 53.8C59.3764 53.8 62.6 50.5765 62.6 46.6C62.6 43.4651 60.5965 40.7981 57.8 39.8097M55.4 53.8C51.4235 53.8 48.2 50.5765 48.2 46.6C48.2 42.6236 51.4235 39.4 55.4 39.4M55.4 39.4L25.8 42.2222M55.4 39.4C56.2415 39.4 57.0493 39.5444 57.8 39.8097M45 9H39.4V1H54.6V9H45ZM45 9V12.2M45 12.2L25.8 42.2222M45 12.2H79.4L83.4 41L89.8 45.8M54.6 45.8L56.2 56.2M56.2 56.2H49V61.8H62.6V56.2H56.2ZM57.8 39.8097L85 6.6H92.2C92.2 6.6 95.4 7.4 95.4 11.4C95.4 15.4 92.2 16.2 92.2 16.2H89M45.8 46.6C45.8 58.9712 35.7712 69 23.4 69C11.0288 69 1 58.9712 1 46.6C1 34.2288 11.0288 24.2 23.4 24.2C35.7712 24.2 45.8 34.2288 45.8 46.6ZM112.2 46.6C112.2 58.9712 102.171 69 89.8 69C77.4288 69 67.4 58.9712 67.4 46.6C67.4 34.2288 77.4288 24.2 89.8 24.2C102.171 24.2 112.2 34.2288 112.2 46.6ZM38.6 45.8C38.6 54.6366 31.4366 61.8 22.6 61.8C13.7634 61.8 6.6 54.6366 6.6 45.8C6.6 36.9634 13.7634 29.8 22.6 29.8C31.4366 29.8 38.6 36.9634 38.6 45.8ZM105.8 45.8C105.8 54.6366 98.6366 61.8 89.8 61.8C80.9634 61.8 73.8 54.6366 73.8 45.8C73.8 36.9634 80.9634 29.8 89.8 29.8C98.6366 29.8 105.8 36.9634 105.8 45.8ZM94.6 45.8C94.6 48.451 92.451 50.6 89.8 50.6C87.149 50.6 85 48.451 85 45.8C85 43.149 87.149 41 89.8 41C92.451 41 94.6 43.149 94.6 45.8Z" stroke="#FCFBFA" stroke-width="0.7"/>
</svg>