<svg xmlns="http://www.w3.org/2000/svg" width="20" height="20" viewBox="0 0 20 20" fill="none">
<g clip-path="url(#clip0_145_1604)">
<path d="M18.75 18.2812H17.9688V2.5C17.9688 2.24125 17.7588 2.03125 17.5 2.03125H13.75C13.4913 2.03125 13.2812 2.24125 13.2812 2.5C13.2812 2.75875 13.4913 2.96875 13.75 2.96875H17.0312V18.75C17.0312 19.0088 17.2412 19.2188 17.5 19.2188H18.75C19.0088 19.2188 19.2188 19.0088 19.2188 18.75C19.2188 18.4912 19.0088 18.2812 18.75 18.2812ZM11.1581 0.7875L3.6725 2.0375C3.44937 2.07625 3.28125 2.26875 3.28125 2.5V18.2812H1.25C0.99125 18.2812 0.78125 18.4912 0.78125 18.75C0.78125 19.0088 0.99125 19.2188 1.25 19.2188H11.2356C11.4944 19.2188 11.7044 19.0088 11.7044 18.75V1.25C11.7037 0.99125 11.4937 0.78125 11.235 0.78125C11.2081 0.78125 11.1813 0.78375 11.1556 0.788125L11.1581 0.7875ZM4.21875 18.2812V2.89688L10.7669 1.80375V18.2812H4.21875ZM8.73688 9.5625C8.68563 9.54375 8.62625 9.5325 8.56437 9.5325C8.43313 9.5325 8.31375 9.58187 8.22375 9.66313L8.22438 9.6625C8.13938 9.74938 8.08687 9.86875 8.08687 10C8.08687 10.1313 8.13938 10.2506 8.22438 10.3375C8.315 10.4138 8.43313 10.4606 8.56125 10.4619H8.56188C8.62438 10.4606 8.685 10.4519 8.74188 10.4356L8.73688 10.4369C8.79562 10.4125 8.845 10.3794 8.88688 10.3375C8.97188 10.2506 9.02437 10.1313 9.02437 10C9.02437 9.86875 8.97188 9.74938 8.88688 9.6625C8.845 9.62 8.795 9.58625 8.73938 9.56375L8.73625 9.5625H8.73688Z" fill="#22401E"/>
</g>
<defs>
<clipPath id="clip0_145_1604">
<rect width="20" height="20" fill="white"/>
</clipPath>
</defs>
</svg>