<svg xmlns="http://www.w3.org/2000/svg" width="20" height="20" viewBox="0 0 20 20" fill="none">
  <g clip-path="url(#clip0_145_1664)">
    <path d="M1.25 5.22501H9.16667V9.16667C9.16667 9.79877 8.91557 10.405 8.4686 10.8519C8.02164 11.2989 7.41543 11.55 6.78333 11.55H3.63333C3.32035 11.55 3.01043 11.4884 2.72127 11.3686C2.43211 11.2488 2.16938 11.0733 1.94806 10.8519C1.5011 10.405 1.25 9.79877 1.25 9.16667V5.22501Z" stroke="#22401E" stroke-miterlimit="10"/>
    <path d="M2.8418 0.458344V5.22501" stroke="#22401E" stroke-miterlimit="10"/>
    <path d="M7.61719 0.458252V5.22492" stroke="#22401E" stroke-miterlimit="10"/>
    <path d="M3.63281 11.5916H6.81615V13.1832C6.81615 13.6054 6.64845 14.0102 6.34996 14.3087C6.05146 14.6072 5.64662 14.7749 5.22448 14.7749C5.01546 14.7749 4.80848 14.7337 4.61537 14.6537C4.42226 14.5737 4.2468 14.4565 4.099 14.3087C3.80051 14.0102 3.63281 13.6054 3.63281 13.1832V11.5916Z" stroke="#22401E" stroke-miterlimit="10"/>
    <path d="M5.22461 14.7751V15.1668C5.22461 16.1171 5.60214 17.0286 6.27414 17.7006C6.94615 18.3726 7.85758 18.7501 8.80794 18.7501C9.27812 18.7501 9.74368 18.6574 10.178 18.4772C10.6122 18.297 11.0067 18.0329 11.3388 17.7001C11.6709 17.3672 11.934 16.9721 12.1132 16.5374C12.2924 16.1027 12.384 15.6369 12.3829 15.1668V8.40843C12.3829 7.56416 12.7183 6.75447 13.3153 6.15747C13.9123 5.56048 14.722 5.2251 15.5663 5.2251C16.4105 5.2251 17.2202 5.56048 17.8172 6.15747C18.4142 6.75447 18.7496 7.56416 18.7496 8.40843V19.5418" stroke="#22401E" stroke-miterlimit="10"/>
  </g>
  <defs>
    <clipPath id="clip0_145_1664">
      <rect width="20" height="20" fill="white"/>
    </clipPath>
  </defs>
</svg>