<svg width="166" height="190" viewBox="0 0 166 190" fill="none" xmlns="http://www.w3.org/2000/svg">
<g id="email illustration">
<path id="Vector 19" d="M130.554 33L137.43 102.684L133.655 105.5L110.054 123.109L82.0537 144L49.5537 128.019L20.9085 113.934L14.6439 44.5L14.5537 43.5L38.36 41.5658L45.3245 41L63.0537 45.3866L67.5537 46.5L64.3229 39.5L126.554 33.3926L130.554 33Z" fill="#FCFBFA"/>
<g id="Vector 20">
<path d="M133.748 65.3717L137.43 102.684L153.76 90.5L152.054 72L133.748 65.3717Z" fill="#C1CBB0"/>
<path d="M0.0537109 86.5L1.722 104.5L17.0537 112.039L20.9085 113.934L17.463 75.7456L0.0537109 86.5Z" fill="#C1CBB0"/>
</g>
<path id="Vector 18" d="M153.706 90.5L161.5 175L160 175.138L11 188.862L9.5 189L1.66829 104.5L17 112.039L49.5 128.019L82 144L110 123.109L133.602 105.5L153.706 90.5Z" fill="#C4B09E"/>
<path id="Vector 16" d="M45 1.74561L36 12.8665L22 1.74561L13 12.8665L26.5 24.4929L17.5 35.6137L43.7708 42.1852L61.5 46.62L66 47.7456L62.7692 40.6687L45 1.74561Z" fill="#C1CBB0"/>
<path id="Vector 17" d="M72.5537 56L76.0537 98L72.5537 98.3219L32.5537 102L32.5061 101.5L28.6489 61L28.5537 60L69.0537 56.3182L72.5537 56Z" fill="#D0D6CE"/>
<path id="Vector 15" d="M48.3245 41L22.0537 34.5L31.0537 23.5L17.5537 12L26.5537 1L40.5537 12L49.5537 1L67.3229 39.5M48.3245 41L66.0537 45.3866L70.5537 46.5L67.3229 39.5M48.3245 41L41.36 41.5658L17.5537 43.5L17.6439 44.5L23.9145 114M140.43 102.684L133.554 33L129.554 33.3926L67.3229 39.5M4.722 104.5L20.0537 112.039L52.5537 128.019M156.76 90.5L136.655 105.5L113.054 123.109M16.8037 78.5194L3.05371 86.5L12.5537 189L14.0537 188.862M132.554 63.853L155.054 72L164.554 175L163.054 175.138M52.5537 128.019L85.0537 144L113.054 123.109M52.5537 128.019L14.0537 188.862M14.0537 188.862L163.054 175.138M113.054 123.109L163.054 175.138M36.5537 59L36.6489 60L40.5061 100.5L40.5537 101L80.5537 97.3218L84.0537 97L80.5537 55L77.0537 55.3182L36.5537 59Z" stroke="#7A8C51"/>
</g>
</svg>
