<svg xmlns="http://www.w3.org/2000/svg" width="16" height="16" viewBox="0 0 16 16" fill="none">
  <path d="M8.4998 14.5C8.43302 14.5 8.36691 14.4867 8.30538 14.4607C8.24384 14.4348 8.18813 14.3968 8.14152 14.349C8.09492 14.3011 8.05837 14.2444 8.03402 14.1823C8.00968 14.1201 7.99805 14.0536 7.9998 13.9869V8.25407C7.9998 8.18776 7.97346 8.12418 7.92658 8.07729C7.87969 8.03041 7.8161 8.00407 7.7498 8.00407H2.01262C1.90745 8.00531 1.80448 7.974 1.71782 7.91441C1.63115 7.85483 1.56504 7.76989 1.52855 7.67126C1.487 7.55362 1.49092 7.42471 1.53955 7.30982C1.58817 7.19493 1.67799 7.10237 1.79137 7.05032L13.7914 1.54563C13.8841 1.50315 13.9876 1.49003 14.0879 1.50804C14.1883 1.52605 14.2808 1.57432 14.3529 1.64638C14.4251 1.71844 14.4735 1.81084 14.4916 1.91119C14.5098 2.01154 14.4968 2.11504 14.4545 2.20781L8.95449 14.2078C8.91466 14.295 8.85063 14.3688 8.77002 14.4206C8.68941 14.4724 8.59562 14.5 8.4998 14.5Z" fill="#FCFBFA"/>
</svg>