<svg xmlns="http://www.w3.org/2000/svg" width="21" height="21" viewBox="0 0 21 21" fill="none">
  <g clip-path="url(#clip0_142_1304)">
    <path d="M7.7406 6.71484H13.7757C14.0165 6.71484 14.2116 6.51966 14.2116 6.27892V4.03571C14.2116 3.79497 14.0165 3.59979 13.7757 3.59979H7.7406C7.49987 3.59979 7.30469 3.79497 7.30469 4.03571V6.27892C7.30469 6.51966 7.49987 6.71484 7.7406 6.71484ZM7.7998 4.03571H13.7757V6.27892H7.7998V4.03571Z" fill="#22401E"/>
    <path d="M0.53943 6.71484H6.57456C6.81529 6.71484 7.01047 6.51966 7.01047 6.27892V4.03571C7.01047 3.79497 6.81529 3.59979 6.57456 3.59979H0.53943C0.298696 3.59979 0.103516 3.79497 0.103516 4.03571V6.27892C0.103516 6.51966 0.298696 6.71484 0.53943 6.71484ZM0.598633 4.03571H6.57456V6.27892H0.598633V4.03571Z" fill="#22401E"/>
    <path d="M0.433961 13.915H6.46909C6.70982 13.915 6.905 13.7199 6.905 13.4791V11.2359C6.905 10.9952 6.70982 10.8 6.46909 10.8H0.433961C0.193228 10.8 -0.00195312 10.9952 -0.00195312 11.2359V13.4791C-0.00195312 13.7199 0.193228 13.915 0.433961 13.915ZM0.493164 11.2359H6.46909V13.4791H0.493164V11.2359Z" fill="#22401E"/>
    <path d="M0.433961 21.115H6.46909C6.70982 21.115 6.905 20.9198 6.905 20.6791V18.4359C6.905 18.1951 6.70982 17.9999 6.46909 17.9999H0.433961C0.193228 17.9999 -0.00195312 18.1951 -0.00195312 18.4359V20.6791C-0.00195312 20.9198 0.193228 21.115 0.433961 21.115ZM0.493164 18.4359H6.46909V20.6791H0.493164V18.4359Z" fill="#22401E"/>
    <path d="M7.63513 13.915H13.6703C13.911 13.915 14.1062 13.7199 14.1062 13.4791V11.2359C14.1062 10.9952 13.911 10.8 13.6703 10.8H7.63513C7.3944 10.8 7.19922 10.9952 7.19922 11.2359V13.4791C7.19922 13.7199 7.3944 13.915 7.63513 13.915ZM7.69434 11.2359H13.6703V13.4791H7.69434V11.2359Z" fill="#22401E"/>
    <path d="M7.63513 21.115H13.6703C13.911 21.115 14.1062 20.9198 14.1062 20.6791V18.4359C14.1062 18.1951 13.911 17.9999 13.6703 17.9999H7.63513C7.3944 17.9999 7.19922 18.1951 7.19922 18.4359V20.6791C7.19922 20.9198 7.3944 21.115 7.63513 21.115ZM7.69434 18.4359H13.6703V20.6791H7.69434V18.4359Z" fill="#22401E"/>
    <path d="M14.8344 13.9149H20.8695C21.1102 13.9149 21.3054 13.7197 21.3054 13.479V11.2358C21.3054 10.995 21.1102 10.7999 20.8695 10.7999H14.8344C14.5936 10.7999 14.3984 10.995 14.3984 11.2358V13.479C14.3984 13.7197 14.5936 13.9149 14.8344 13.9149ZM14.8936 11.2358H20.8695V13.479H14.8936V11.2358Z" fill="#22401E"/>
    <path d="M14.8344 21.1149H20.8695C21.1102 21.1149 21.3054 20.9197 21.3054 20.679V18.4358C21.3054 18.1951 21.1102 17.9999 20.8695 17.9999H14.8344C14.5936 17.9999 14.3984 18.1951 14.3984 18.4358V20.679C14.3984 20.9197 14.5936 21.1149 14.8344 21.1149ZM14.8936 18.4358H20.8695V20.679H14.8936V18.4358Z" fill="#22401E"/>
    <path d="M4.03357 10.3149H10.0687C10.3094 10.3149 10.5046 10.1198 10.5046 9.87902V7.6358C10.5046 7.39507 10.3094 7.19989 10.0687 7.19989H4.03357C3.79284 7.19989 3.59766 7.39507 3.59766 7.6358V9.87902C3.59766 10.1198 3.79284 10.3149 4.03357 10.3149ZM4.09277 7.6358H10.0687V9.87902H4.09277V7.6358Z" fill="#22401E"/>
    <path d="M4.03357 17.5149H10.0687C10.3094 17.5149 10.5046 17.3197 10.5046 17.079V14.8358C10.5046 14.595 10.3094 14.3998 10.0687 14.3998H4.03357C3.79284 14.3998 3.59766 14.595 3.59766 14.8358V17.079C3.59766 17.3197 3.79284 17.5149 4.03357 17.5149ZM4.09277 14.8358H10.0687V17.079H4.09277V14.8358Z" fill="#22401E"/>
    <path d="M11.2347 10.3149H17.2699C17.5106 10.3149 17.7058 10.1198 17.7058 9.87902V7.6358C17.7058 7.39507 17.5106 7.19989 17.2699 7.19989H11.2347C10.994 7.19989 10.7988 7.39507 10.7988 7.6358V9.87902C10.7988 10.1198 10.994 10.3149 11.2347 10.3149ZM11.2939 7.6358H17.2699V9.87902H11.2939V7.6358Z" fill="#22401E"/>
    <path d="M11.2347 17.5149H17.2699C17.5106 17.5149 17.7058 17.3197 17.7058 17.079V14.8358C17.7058 14.595 17.5106 14.3998 17.2699 14.3998H11.2347C10.994 14.3998 10.7988 14.595 10.7988 14.8358V17.079C10.7988 17.3197 10.994 17.5149 11.2347 17.5149ZM11.2939 14.8358H17.2699V17.079H11.2939V14.8358Z" fill="#22401E"/>
    <path d="M4.13904 3.37451H10.1742C10.4149 3.37451 10.6101 3.17932 10.6101 2.93859V0.695375C10.6101 0.454641 10.4149 0.25946 10.1742 0.25946H4.13904C3.89831 0.25946 3.70312 0.454641 3.70312 0.695375V2.93859C3.70312 3.17932 3.89831 3.37451 4.13904 3.37451ZM4.19824 0.695375H10.1742V2.93859H4.19824V0.695375Z" fill="#22401E"/>
    <path d="M-3.16565 3.37451H2.86948C3.11021 3.37451 3.30539 3.17932 3.30539 2.93859V0.695375C3.30539 0.454641 3.11021 0.25946 2.86948 0.25946H-3.16565C-3.40638 0.25946 -3.60156 0.454641 -3.60156 0.695375V2.93859C-3.60156 3.17932 -3.40638 3.37451 -3.16565 3.37451ZM-3.10645 0.695375H2.86948V2.93859H-3.10645V0.695375Z" fill="#22401E"/>
    <path d="M-3.16565 10.3149H2.86948C3.11021 10.3149 3.30539 10.1198 3.30539 9.87902V7.6358C3.30539 7.39507 3.11021 7.19989 2.86948 7.19989H-3.16565C-3.40638 7.19989 -3.60156 7.39507 -3.60156 7.6358V9.87902C-3.60156 10.1198 -3.40638 10.3149 -3.16565 10.3149ZM-3.10645 7.6358H2.86948V9.87902H-3.10645V7.6358Z" fill="#22401E"/>
    <path d="M-3.16565 17.5149H2.86948C3.11021 17.5149 3.30539 17.3198 3.30539 17.079V14.8358C3.30539 14.5951 3.11021 14.3999 2.86948 14.3999H-3.16565C-3.40638 14.3999 -3.60156 14.5951 -3.60156 14.8358V17.079C-3.60156 17.3198 -3.40638 17.5149 -3.16565 17.5149ZM-3.10645 14.8358H2.86948V17.079H-3.10645V14.8358Z" fill="#22401E"/>
    <path d="M18.434 10.3149H24.4691C24.7098 10.3149 24.905 10.1198 24.905 9.87902V7.6358C24.905 7.39507 24.7098 7.19989 24.4691 7.19989H18.434C18.1932 7.19989 17.998 7.39507 17.998 7.6358V9.87902C17.998 10.1198 18.1932 10.3149 18.434 10.3149ZM18.4932 7.6358H24.4691V9.87902H18.4932V7.6358Z" fill="#22401E"/>
    <path d="M18.434 17.5149H24.4691C24.7098 17.5149 24.905 17.3197 24.905 17.079V14.8358C24.905 14.595 24.7098 14.3998 24.4691 14.3998H18.434C18.1932 14.3998 17.998 14.595 17.998 14.8358V17.079C17.998 17.3197 18.1932 17.5149 18.434 17.5149ZM18.4932 14.8358H24.4691V17.079H18.4932V14.8358Z" fill="#22401E"/>
  </g>
  <defs>
    <clipPath id="clip0_142_1304">
      <rect width="20.4" height="20.4" fill="white"/>
    </clipPath>
  </defs>
</svg>