<svg xmlns="http://www.w3.org/2000/svg" width="141" height="111" viewBox="0 0 141 111" fill="none">
  <path d="M9.60078 21.2H0.800781V34H9.60078M9.60078 21.2V34M9.60078 21.2V6.00001H18.4008M9.60078 34V49.2H18.4008M18.4008 6.00001V49.2M18.4008 6.00001V1.20001H31.2008V21.2M18.4008 49.2V53.2H31.2008V34M31.2008 21.2V34M31.2008 21.2H36.0008M109.601 21.2H48.8008M109.601 21.2V1.20001H122.401V6.00001M109.601 21.2V34M31.2008 34H36.0008M109.601 34H48.8008M109.601 34V53.2H122.401V49.2M36.0008 21.2V12.4H48.8008V21.2M36.0008 21.2H48.8008M36.0008 34V79.6M36.0008 34H48.8008M36.0008 79.6H48.8008M36.0008 79.6H12.0008V96.4H18.4008M48.8008 79.6V34M48.8008 79.6H128.801V96.4H31.2008M18.4008 96.4V110H31.2008V96.4M18.4008 96.4H31.2008M92.0008 21.2V12.4H104.801V21.2M92.0008 34V79.6M104.801 79.6V34M109.601 96.4V110H122.401V96.4M131.201 21.2H140.001V34H131.201M131.201 21.2V34M131.201 21.2V6.00001H122.401M131.201 34V49.2H122.401M122.401 6.00001V49.2" stroke="#FCFBFA" stroke-width="1.2"/>
</svg>