<svg xmlns="http://www.w3.org/2000/svg" width="24" height="24" viewBox="0 0 24 24" fill="none">
  <path d="M22.125 7.875H1.875C1.57663 7.875 1.29048 7.75647 1.0795 7.5455C0.868526 7.33452 0.75 7.04837 0.75 6.75C0.75 6.45163 0.868526 6.16548 1.0795 5.9545C1.29048 5.74353 1.57663 5.625 1.875 5.625H22.125C22.4234 5.625 22.7095 5.74353 22.9205 5.9545C23.1315 6.16548 23.25 6.45163 23.25 6.75C23.25 7.04837 23.1315 7.33452 22.9205 7.5455C22.7095 7.75647 22.4234 7.875 22.125 7.875Z" fill="#22401E"/>
  <path d="M21.875 13.125H9.125C8.82663 13.125 8.54048 13.0065 8.3295 12.7955C8.11853 12.5845 8 12.2984 8 12C8 11.7016 8.11853 11.4155 8.3295 11.2045C8.54048 10.9935 8.82663 10.875 9.125 10.875H21.875C22.1734 10.875 22.4595 10.9935 22.6705 11.2045C22.8815 11.4155 23 11.7016 23 12C23 12.2984 22.8815 12.5845 22.6705 12.7955C22.4595 13.0065 22.1734 13.125 21.875 13.125Z" fill="#22401E"/>
  <path d="M21.875 18.375H18.125C17.8266 18.375 17.5405 18.2565 17.3295 18.0455C17.1185 17.8345 17 17.5484 17 17.25C17 16.9516 17.1185 16.6655 17.3295 16.4545C17.5405 16.2435 17.8266 16.125 18.125 16.125H21.875C22.1734 16.125 22.4595 16.2435 22.6705 16.4545C22.8815 16.6655 23 16.9516 23 17.25C23 17.5484 22.8815 17.8345 22.6705 18.0455C22.4595 18.2565 22.1734 18.375 21.875 18.375Z" fill="#22401E"/>
</svg>