<svg width="85" height="92" viewBox="0 0 85 92" fill="none" xmlns="http://www.w3.org/2000/svg">
<g id="Group 10">
<path id="Vector 3" d="M20.1955 74.3447H14.0884C11.6249 74.3815 10.9817 73.8266 10.9384 71.9821V41.663L42.4388 14.8877L73.9392 41.663V71.9821C73.9338 73.8799 73.324 74.2983 71.5766 74.3447H63.0164M2.27577 35.7567C3.45703 34.5754 41.6512 1.5 42.4388 1.5C43.2263 1.5 82.9955 35.7567 82.9955 35.7567C82.9955 35.7567 84.9643 37.3317 83.3893 39.3005C81.8142 41.2692 79.4517 39.3005 79.4517 39.3005C79.4517 39.3005 43.2263 8.19383 42.4388 8.19383C41.6512 8.19383 5.42581 39.3005 5.42581 39.3005C5.42581 39.3005 3.45703 41.2692 1.88201 39.6942C0.306992 38.1192 1.0945 36.9379 2.27577 35.7567Z" stroke="#FCFBFA" stroke-width="1.2"/>
<path id="Vector 11" d="M33 77.2978V72.1969M39.3852 56.8941C39.3852 56.8941 39.3852 53.6725 36.1926 53.6725C33 53.6725 33 56.8941 33 56.8941V62.8004M46.3025 77.2978V72.1969M52.6877 68.1698V56.8941C52.6877 56.8941 52.6877 53.6725 49.4951 53.6725C46.3025 53.6725 46.3025 56.8941 46.3025 56.8941V62.8004M33 62.8004H46.3025M33 62.8004V67.0959M46.3025 62.8004V67.0959M33 67.0959H46.3025M33 67.0959V72.1969M46.3025 67.0959V72.1969M33 72.1969H46.3025" stroke="#FCFBFA" stroke-width="1.2"/>
<path id="Vector" d="M23 75C24.7584 75 25.5924 75.6259 26.5582 76.3504C27.5888 77.1236 28.7568 78 30.997 78C33.2378 78 34.4063 77.1236 35.4372 76.3505C36.4034 75.6258 37.2379 75 38.997 75C40.7562 75 41.5906 75.6259 42.557 76.3505C43.588 77.1236 44.7565 78 46.9973 78C49.2385 78 50.4071 77.1236 51.4381 76.3505C52.4046 75.6258 53.2392 75 54.9987 75C56.7581 75 57.5927 75.6259 58.5592 76.3505C59.5902 77.1236 60.7587 78 63 78" stroke="#FCFBFA" stroke-width="1.2"/>
<path id="Vector_2" d="M23 79C24.7584 79 25.5924 79.6259 26.5582 80.3504C27.5888 81.1236 28.7568 82 30.997 82C33.2378 82 34.4063 81.1236 35.4372 80.3505C36.4034 79.6258 37.2379 79 38.997 79C40.7562 79 41.5906 79.6259 42.557 80.3505C43.588 81.1236 44.7565 82 46.9973 82C49.2385 82 50.4071 81.1236 51.4381 80.3505C52.4046 79.6258 53.2392 79 54.9987 79C56.7581 79 57.5927 79.6259 58.5592 80.3505C59.5902 81.1236 60.7587 82 63 82" stroke="#FCFBFA" stroke-width="1.2"/>
<path id="Vector_3" d="M23 84C24.7584 84 25.5924 84.6259 26.5582 85.3504C27.5888 86.1236 28.7568 87 30.997 87C33.2378 87 34.4063 86.1236 35.4372 85.3505C36.4034 84.6258 37.2379 84 38.997 84C40.7562 84 41.5906 84.6259 42.557 85.3505C43.588 86.1236 44.7565 87 46.9973 87C49.2385 87 50.4071 86.1236 51.4381 85.3505C52.4046 84.6258 53.2392 84 54.9987 84C56.7581 84 57.5927 84.6259 58.5592 85.3505C59.5902 86.1236 60.7587 87 63 87" stroke="#FCFBFA" stroke-width="1.2"/>
<path id="Vector_4" d="M23 88C24.7584 88 25.5924 88.6259 26.5582 89.3504C27.5888 90.1236 28.7568 91 30.997 91C33.2378 91 34.4063 90.1236 35.4372 89.3505C36.4034 88.6258 37.2379 88 38.997 88C40.7562 88 41.5906 88.6259 42.557 89.3505C43.588 90.1236 44.7565 91 46.9973 91C49.2385 91 50.4071 90.1236 51.4381 89.3505C52.4046 88.6258 53.2392 88 54.9987 88C56.7581 88 57.5927 88.6259 58.5592 89.3505C59.5902 90.1236 60.7587 91 63 91" stroke="#FCFBFA" stroke-width="1.2"/>
</g>
</svg>
