<svg xmlns="http://www.w3.org/2000/svg" width="145" height="111" viewBox="0 0 145 111" fill="none">
  <path d="M14.056 91.5216H7.0928V98.4848M14.056 91.5216L21.0192 60.1872M14.056 91.5216H48.872M7.0928 98.4848H56.7056M7.0928 98.4848H4.4816C4.4816 98.4848 1 100.226 1 104.578C1 108.93 4.4816 109.8 4.4816 109.8H56.7056M56.7056 98.4848V91.5216M56.7056 98.4848C56.7056 98.4848 60.1872 99.3552 60.1872 104.578C60.1872 109.8 56.7056 109.8 56.7056 109.8M56.7056 98.4848H87.1696M56.7056 91.5216H87.1696M56.7056 91.5216H50.6128M56.7056 109.8H87.1696M21.0192 60.1872H41.9088M21.0192 60.1872H15.7968C15.7968 60.1872 11.4448 60.1872 11.4448 55.8352C11.4448 51.4832 15.7968 50.6128 15.7968 50.6128M41.9088 60.1872L48.872 91.5216M41.9088 60.1872H48.0016C48.0016 60.1872 51.4832 60.1872 51.4832 55.8352C51.4832 51.4832 48.0016 50.6128 48.0016 50.6128M48.872 91.5216H50.6128M15.7968 50.6128H48.0016M15.7968 50.6128C15.7968 50.6128 14.056 49.7424 14.056 47.1312C14.056 44.52 15.7968 42.7792 15.7968 42.7792H25.3712M48.0016 50.6128C48.0016 50.6128 48.872 49.7424 48.872 47.1312C48.872 44.52 46.2608 42.7792 46.2608 42.7792H40.168M25.3712 42.7792C20.9173 39.8905 18.408 35.816 18.408 32.3344C18.408 28.8528 20.1488 20.1488 31.464 20.1488C42.7792 20.1488 44.52 32.3344 44.52 32.3344C44.6741 37.8351 43.1114 39.6558 40.168 42.7792M25.3712 42.7792H40.168M138.523 98.4848V91.5216H135.042M138.523 98.4848H87.1696M138.523 98.4848C138.523 98.4848 143.746 99.3552 143.746 104.578C143.746 109.8 140.264 109.8 140.264 109.8H87.1696M87.1696 91.5216V98.4848M87.1696 91.5216H91.5216M87.1696 98.4848C87.1696 98.4848 82.8176 100.226 82.8176 104.578C82.8176 108.93 87.1696 109.8 87.1696 109.8M50.6128 91.5216C50.6128 91.5216 57.576 81.0768 58.4464 73.2432C59.3168 65.4096 59.3168 50.6128 59.3168 50.6128M59.3168 50.6128H81.9472M59.3168 50.6128H55.8352C55.8352 50.6128 52.3536 48.872 53.224 46.2608C54.0944 43.6496 54.9648 42.7792 54.9648 42.7792M81.9472 50.6128C81.9472 50.6128 82.8176 64.5392 82.8176 73.2432C82.8176 81.9472 91.5216 91.5216 91.5216 91.5216M81.9472 50.6128H85.4288C85.4288 50.6128 87.1696 48.872 87.1696 46.2608C87.1696 43.6496 85.4288 42.7792 85.4288 42.7792M91.5216 91.5216H93.2624M54.9648 42.7792H85.4288M54.9648 42.7792C54.9648 42.7792 50.6128 42.7792 50.6128 39.2976C50.6128 35.816 53.224 33.2048 53.224 33.2048H54.9648M85.4288 42.7792C85.4288 42.7792 89.7808 43.6496 89.7808 39.2976C89.7808 34.9456 87.1696 33.2048 87.1696 33.2048H85.4288M54.9648 33.2048C54.9648 33.2048 53.224 31.464 53.224 29.7232C53.224 27.9824 54.9648 26.2416 54.9648 26.2416H59.3168M54.9648 33.2048H85.4288M85.4288 33.2048C85.4288 33.2048 87.1696 31.464 87.1696 29.7232C87.1696 27.9824 85.4288 26.2416 85.4288 26.2416H81.9472M59.3168 26.2416L55.8352 17.5376H67.1504M59.3168 26.2416H81.9472M81.9472 26.2416L84.5584 17.5376H77.5952M67.1504 17.5376C63.9488 16.4001 61.0576 13.1856 61.0576 9.704C61.0576 6.2224 62.7984 1 70.632 1C78.4656 1 80.2064 6.2224 80.2064 9.704C80.2064 13.1856 77.5952 17.5376 77.5952 17.5376M67.1504 17.5376H77.5952M93.2624 91.5216C93.2624 91.5216 99.3552 79.336 100.226 74.984C101.096 70.632 101.966 50.6128 101.966 50.6128M93.2624 91.5216H135.042M101.966 50.6128H123.726M101.966 50.6128H100.226C100.226 50.6128 95.8736 50.6128 95.8736 46.2608C95.8736 41.9088 100.226 40.168 100.226 40.168M123.726 50.6128C123.726 50.6128 125.467 68.0208 126.338 74.984C127.208 81.9472 135.042 91.5216 135.042 91.5216M123.726 50.6128H126.338C126.338 50.6128 130.69 50.6128 130.69 46.2608C130.69 41.9088 126.338 40.168 126.338 40.168M100.226 40.168H126.338M100.226 40.168L93.2624 15.7968H102.837L104.578 23.6304H108.059L109.8 15.7968H117.634L119.374 23.6304H122.856L124.597 15.7968H131.56L126.338 40.168" stroke="#FCFBFA" stroke-width="1.2"/>
</svg>