<svg xmlns="http://www.w3.org/2000/svg" width="47" height="70" viewBox="0 0 47 70" fill="none">
  <path d="M33.2383 4.52317C33.4037 4.85385 33.073 5.51513 33.2383 6.50708C33.4037 7.49903 34.7263 7.66436 34.7263 8.49098C34.7263 9.31761 34.2303 12.6241 33.569 12.9548C32.9077 13.2854 31.2544 12.4588 31.2544 12.4588C31.0419 12.319 30.8352 12.1498 30.6366 11.9628M33.2383 4.52317C33.073 4.1925 30.9238 3.3659 30.2625 3.86187C29.6012 4.35785 29.1052 6.17643 28.9399 6.34175C28.7745 6.50708 27.6173 5.18448 26.956 5.51513C26.2947 5.84578 26.46 6.83773 26.46 6.83773C26.46 6.83773 26.9559 8.82164 27.2866 9.15228M33.2383 4.52317C33.2383 4.52317 35.5531 4.35777 35.7183 3.20057C35.8835 2.04336 34.065 1.71264 34.065 1.71264C32.0427 1.02095 30.7138 0.915505 28.1133 1.05134C28.1133 1.05134 25.1374 1.21667 23.8148 3.86187C22.4922 6.50708 25.9641 10.3096 25.9641 10.3096M27.2866 9.15228C27.6173 9.48293 28.2785 9.15228 28.4439 9.15228C28.5852 9.15228 29.4711 10.8651 30.6366 11.9628M27.2866 9.15228L25.9641 10.3096M25.9641 10.3096L25.3028 12.1281M25.3028 12.1281L29.6012 14.2774M25.3028 12.1281C25.3028 12.1281 24.1456 12.6242 22.9883 14.2774M29.6012 14.2774L30.6366 11.9628M29.6012 14.2774C29.6012 14.2774 31.9159 16.7572 32.4118 17.7491C32.6832 18.2919 33.0535 19.28 33.4145 20.0637M29.6012 14.2774C29.6012 14.2774 26.9561 13.12 25.4682 13.9466C23.9802 14.7733 24.8069 17.7491 24.8069 17.7491C26.4245 20.9314 27.5007 22.5649 29.436 25.4642M22.9883 14.2774C21.8311 15.9305 21.5004 18.5758 21.5004 18.5758L20.5911 24.1968M22.9883 14.2774L17.6979 20.5597M19.6818 29.8179L28.7747 31.4711M19.6818 29.8179L20.1365 27.0073M19.6818 29.8179C19.6818 29.8179 18.8553 30.8098 17.6979 33.1244C16.5406 35.4389 14.5567 41.2253 14.5567 41.2253M28.7747 31.4711L29.7667 26.0154M28.7747 31.4711C28.7747 31.4711 31.7505 33.1244 33.2385 33.951M29.7667 26.0154C29.7667 26.0154 31.5853 28.4953 32.4118 28.4953C33.2383 28.4953 34.2304 27.6687 34.2304 27.6687C34.2304 27.6687 41.1741 22.0476 41.67 21.7169C42.166 21.3863 44.8112 20.3943 45.3072 20.0637C45.8032 19.733 45.7642 18.7502 45.6379 18.5758C45.5115 18.4013 42.8544 15.251 42.662 15.1039C42.3201 15.001 42.0961 15.1116 41.67 15.4346C41.67 15.4346 39.6861 18.0798 39.3555 18.4104C39.0248 18.7411 34.7264 21.221 34.2304 21.221C34.0058 21.221 33.7134 20.7124 33.4145 20.0637M29.7667 26.0154L29.436 25.4642M17.6979 20.5597C17.6979 20.5597 16.8713 21.3863 16.706 21.7169C16.5406 22.0476 17.2019 23.2049 17.2019 23.2049L20.1365 27.0073M17.6979 20.5597L20.5911 24.1968M20.1365 27.0073L20.5911 24.1968M29.436 25.4642L33.4145 20.0637M14.5567 41.2253L20.5911 43.3746M14.5567 41.2253C14.5567 41.2253 12.7381 45.5238 12.2421 46.5157C11.7462 47.5077 9.4316 48.0037 8.77029 49.4916C8.10899 50.9795 4.47183 59.7418 4.47183 59.7418M20.5911 43.3746C20.5911 43.3746 23.9802 39.2414 24.8069 39.0761C25.2325 38.991 27.7181 39.4756 30.0973 40.011M20.5911 43.3746L17.6979 47.3424C17.0414 47.9289 16.2099 47.673 15.714 48.169C15.218 48.665 7.44769 60.7337 7.44769 60.7337M31.7505 52.1368C31.7505 52.1368 32.4118 48.3343 32.7425 46.5157C33.0731 44.6972 35.2224 41.556 34.7264 41.2253C34.4858 41.0649 32.3388 40.5155 30.0973 40.011M31.7505 52.1368L34.7264 53.1288M31.7505 52.1368C31.7505 52.1368 30.4279 52.4675 29.6013 53.7901C28.7747 55.1127 28.7747 57.2619 28.7747 57.2619C31.7532 59.202 33.5151 59.9465 36.7103 61.0644C36.7103 61.0644 37.7022 60.8991 38.1982 60.0724C38.6942 59.2458 38.3635 58.0885 38.3635 58.0885C36.743 57.1763 34.7264 55.774 34.5611 55.1127C34.3957 54.4514 34.7264 53.1288 34.7264 53.1288M34.7264 53.1288L40.1821 41.556C40.5264 40.7922 40.8766 40.3701 40.3474 39.5721C40.3474 39.5721 34.7264 34.7776 33.2385 33.951M33.2385 33.951C31.6901 35.9337 31.1094 37.3882 30.0973 40.011M4.47183 59.7418L7.44769 60.7337M4.47183 59.7418C4.47183 59.7418 2.9839 60.4031 1.99195 61.395C1 62.387 1 64.3709 1 64.3709L8.43964 69C8.43964 69 9.26627 69 9.59692 68.3387C9.92757 67.6774 9.59692 66.1895 9.59692 66.1895C9.59692 66.1895 7.28237 63.7096 7.28237 63.0483C7.28237 62.387 7.44769 60.7337 7.44769 60.7337" stroke="#FCFBFA" stroke-width="0.7"/>
</svg>