<svg xmlns="http://www.w3.org/2000/svg" width="21" height="21" viewBox="0 0 21 21" fill="none">
  <path d="M18.0516 0.65625H3.09898C2.32214 0.65625 1.64062 1.30331 1.64062 2.0411V20.8359C1.64062 20.9267 1.71412 21 1.80469 21H19.1953C19.2859 21 19.3594 20.9267 19.3595 20.8359V2.0411C19.3595 1.26459 18.785 0.65625 18.0516 0.65625ZM19.0312 20.6719H1.96875V2.0411C1.96875 1.4782 2.49687 0.984375 3.09881 0.984375H18.0515C18.6101 0.984375 19.0312 1.43883 19.0312 2.0411V20.6719Z" fill="#22401E"/>
  <path d="M8.61176 1.64209C8.07298 1.64209 7.63477 2.08046 7.63477 2.61908C7.63477 3.1577 8.07298 3.59607 8.61176 3.59607C9.15054 3.59607 9.58875 3.1577 9.58875 2.61908C9.58875 2.08046 9.15054 1.64209 8.61176 1.64209ZM8.61176 3.26795C8.25394 3.26795 7.96289 2.9769 7.96289 2.61908C7.96289 2.26126 8.25394 1.97021 8.61176 1.97021C8.96958 1.97021 9.26063 2.26126 9.26063 2.61908C9.26063 2.9769 8.96958 3.26795 8.61176 3.26795Z" fill="#22401E"/>
  <path d="M12.5532 1.64209C12.0144 1.64209 11.5762 2.08046 11.5762 2.61908C11.5762 3.1577 12.0144 3.59607 12.5532 3.59607C13.0918 3.59607 13.5302 3.1577 13.5302 2.61908C13.5302 2.08046 13.0919 1.64209 12.5532 1.64209ZM12.5532 3.26795C12.1953 3.26795 11.9043 2.9769 11.9043 2.61908C11.9043 2.26126 12.1953 1.97021 12.5532 1.97021C12.9108 1.97021 13.202 2.26126 13.202 2.61908C13.202 2.9769 12.911 3.26795 12.5532 3.26795Z" fill="#22401E"/>
  <path d="M4.6684 1.64209C4.12962 1.64209 3.69141 2.08046 3.69141 2.61908C3.69141 3.1577 4.12962 3.59607 4.6684 3.59607C5.20718 3.59607 5.64539 3.1577 5.64539 2.61908C5.64539 2.08046 5.20718 1.64209 4.6684 1.64209ZM4.6684 3.26795C4.31058 3.26795 4.01953 2.9769 4.01953 2.61908C4.01953 2.26126 4.31058 1.97021 4.6684 1.97021C5.02622 1.97021 5.31727 2.26126 5.31727 2.61908C5.31727 2.9769 5.02622 3.26795 4.6684 3.26795Z" fill="#22401E"/>
  <path d="M16.4964 1.64227C15.9577 1.64227 15.5195 2.08065 15.5195 2.61927C15.5195 3.15788 15.9577 3.59626 16.4964 3.59626C17.0351 3.59626 17.4734 3.15788 17.4734 2.61927C17.4734 2.08065 17.0351 1.64227 16.4964 1.64227ZM16.4964 3.26813C16.1387 3.26813 15.8477 2.97709 15.8477 2.61927C15.8477 2.26144 16.1387 1.9704 16.4964 1.9704C16.854 1.9704 17.1452 2.26144 17.1452 2.61927C17.1452 2.97709 16.8542 3.26813 16.4964 3.26813Z" fill="#22401E"/>
  <path d="M15.75 8.20312H5.08594C4.63362 8.20312 4.26562 8.57112 4.26562 9.02344V15.5859C4.26562 16.0383 4.63362 16.4062 5.08594 16.4062H15.75C16.2023 16.4062 16.5703 16.0383 16.5703 15.5859V9.02344C16.5703 8.57112 16.2023 8.20312 15.75 8.20312ZM16.2422 15.5859C16.2422 15.8573 16.0214 16.0781 15.75 16.0781H5.08594C4.81458 16.0781 4.59375 15.8573 4.59375 15.5859V9.02344C4.59375 8.75208 4.81458 8.53125 5.08594 8.53125H15.75C16.0214 8.53125 16.2422 8.75208 16.2422 9.02344V15.5859Z" fill="#22401E"/>
  <path d="M16.1631 5.74219H4.99943C4.28149 5.74219 3.69727 6.32658 3.69727 7.04501C3.69727 7.31686 3.91809 7.53818 4.18945 7.53818C4.46081 7.53818 4.68164 7.31702 4.68164 7.04534C4.68164 6.86962 4.82421 6.72656 4.99943 6.72656H16.1629C16.3381 6.72656 16.4805 6.86962 16.4805 7.04534C16.4805 7.31735 16.7014 7.53884 16.9727 7.53884C17.2442 7.53884 17.4649 7.31752 17.4651 7.04534C17.4651 6.32674 16.8808 5.74219 16.1631 5.74219ZM16.9729 7.21071C16.8825 7.21071 16.8088 7.13655 16.8088 7.04534C16.8088 6.68866 16.5191 6.39844 16.1631 6.39844H4.99943C4.64325 6.39844 4.35352 6.68866 4.35352 7.04534C4.35352 7.13623 4.27985 7.21005 4.18945 7.21005C4.09905 7.21005 4.02539 7.13606 4.02539 7.04501C4.02539 6.50754 4.46245 6.07031 4.99943 6.07031H16.1631C16.7 6.07031 17.1369 6.5077 17.1369 7.04534C17.1369 7.13655 17.0633 7.21071 16.9729 7.21071Z" fill="#22401E"/>
  <path d="M16.7344 4.26562H1.80469C1.71412 4.26562 1.64062 4.33896 1.64062 4.42969C1.64062 4.52041 1.71412 4.59375 1.80469 4.59375H16.7344C16.8249 4.59375 16.8984 4.52041 16.8984 4.42969C16.8984 4.33896 16.8249 4.26562 16.7344 4.26562Z" fill="#22401E"/>
  <path d="M19.1953 4.26562H17.8828C17.7922 4.26562 17.7188 4.33896 17.7188 4.42969C17.7188 4.52041 17.7922 4.59375 17.8828 4.59375H19.1953C19.2859 4.59375 19.3594 4.52041 19.3594 4.42969C19.3594 4.33896 19.2859 4.26562 19.1953 4.26562Z" fill="#22401E"/>
  <path d="M16.7344 18.375H1.80469C1.71412 18.375 1.64062 18.4483 1.64062 18.5391C1.64062 18.6298 1.71412 18.7031 1.80469 18.7031H16.7344C16.8249 18.7031 16.8984 18.6298 16.8984 18.5391C16.8984 18.4483 16.8249 18.375 16.7344 18.375Z" fill="#22401E"/>
  <path d="M19.1953 18.375H17.8828C17.7922 18.375 17.7188 18.4483 17.7188 18.5391C17.7188 18.6298 17.7922 18.7031 17.8828 18.7031H19.1953C19.2859 18.7031 19.3594 18.6298 19.3594 18.5391C19.3594 18.4483 19.2859 18.375 19.1953 18.375Z" fill="#22401E"/>
  <path d="M5.44353 3.16109L4.12775 1.84547C4.0636 1.78133 3.95992 1.78133 3.89577 1.84547C3.83162 1.90962 3.83162 2.01331 3.89577 2.07746L5.21155 3.39308C5.24354 3.42507 5.28554 3.44115 5.32754 3.44115C5.36954 3.44115 5.41138 3.42507 5.44353 3.39308C5.50768 3.32893 5.50768 3.22524 5.44353 3.16109Z" fill="#22401E"/>
  <path d="M9.38494 3.161L8.06916 1.84538C8.00501 1.78123 7.90132 1.78123 7.83717 1.84538C7.77303 1.90953 7.77303 2.01322 7.83717 2.07737L9.15296 3.39298C9.18495 3.42498 9.22695 3.44106 9.26895 3.44106C9.31095 3.44106 9.35295 3.42498 9.38494 3.39298C9.44909 3.32884 9.44909 3.22515 9.38494 3.161Z" fill="#22401E"/>
  <path d="M13.3283 3.16109L12.0125 1.84547C11.9484 1.78133 11.8447 1.78133 11.7805 1.84547C11.7164 1.90962 11.7164 2.01331 11.7805 2.07746L13.0963 3.39308C13.1283 3.42507 13.1703 3.44115 13.2123 3.44115C13.2543 3.44115 13.2963 3.42507 13.3283 3.39308C13.3924 3.32893 13.3924 3.22524 13.3283 3.16109Z" fill="#22401E"/>
  <path d="M17.2697 3.16109L15.9539 1.84547C15.8898 1.78133 15.7861 1.78133 15.7219 1.84547C15.6578 1.90962 15.6578 2.01331 15.7219 2.07746L17.0377 3.39308C17.0697 3.42507 17.1117 3.44115 17.1537 3.44115C17.1955 3.44115 17.2375 3.42507 17.2697 3.39308C17.3339 3.32893 17.3339 3.22524 17.2697 3.16109Z" fill="#22401E"/>
  <path d="M17.8828 0H3.11719C3.02662 0 2.95312 0.0733359 2.95312 0.164062V0.820312C2.95312 0.911039 3.02662 0.984375 3.11719 0.984375C3.20775 0.984375 3.28125 0.911039 3.28125 0.820312V0.328125H17.7188V0.820312C17.7188 0.911039 17.7922 0.984375 17.8828 0.984375C17.9734 0.984375 18.0469 0.911039 18.0469 0.820312V0.164062C18.0469 0.0733359 17.9734 0 17.8828 0Z" fill="#22401E"/>
  <path d="M9.70167 10.0623L7.91486 8.27565C7.85071 8.2115 7.74703 8.2115 7.68288 8.27565C7.61873 8.3398 7.61873 8.44349 7.68288 8.50763L9.46968 10.2943C9.50167 10.3263 9.54367 10.3423 9.58567 10.3423C9.62767 10.3423 9.66967 10.3263 9.70167 10.2943C9.76581 10.2301 9.76581 10.1264 9.70167 10.0623Z" fill="#22401E"/>
  <path d="M12.1632 12.5237L10.5223 10.8826C10.4581 10.8184 10.3544 10.8184 10.2903 10.8826C10.2262 10.9467 10.2262 11.0504 10.2903 11.1146L11.9313 12.7557C11.9632 12.7877 12.0052 12.8038 12.0472 12.8038C12.0892 12.8038 12.1312 12.7877 12.1632 12.7557C12.2274 12.6915 12.2274 12.5878 12.1632 12.5237Z" fill="#22401E"/>
  <path d="M14.0195 16.1776L8.87775 11.0355C8.8136 10.9714 8.70992 10.9714 8.64577 11.0355C8.58162 11.0997 8.58162 11.2033 8.64577 11.2675L13.7875 16.4095C13.8195 16.4415 13.8615 16.4576 13.9035 16.4576C13.9455 16.4576 13.9875 16.4417 14.0195 16.4095C14.0836 16.3454 14.0836 16.2417 14.0195 16.1776Z" fill="#22401E"/>
</svg>