<svg xmlns="http://www.w3.org/2000/svg" width="112" height="111" viewBox="0 0 112 111" fill="none">
  <path d="M30.5149 14.8894H1V26.4638M30.5149 109.8H1V94.1745M30.5149 109.8H57.1362V98.2255M30.5149 109.8V98.2255M1 26.4638H30.5149M1 26.4638V84.3362M30.5149 26.4638V21.834M30.5149 26.4638V84.3362M30.5149 11.417V1H57.1362V11.417M30.5149 11.417H57.1362M30.5149 11.417V21.834M57.1362 11.417V21.834M30.5149 21.834H57.1362M57.1362 21.834V23.5702M1 84.3362H30.5149M1 84.3362V94.1745M30.5149 84.3362V89.2553M1 94.1745H30.5149M30.5149 94.1745V98.2255M30.5149 94.1745V89.2553M30.5149 98.2255H57.1362M57.1362 98.2255V89.2553M30.5149 89.2553H57.1362M57.1362 89.2553V23.5702M57.1362 23.5702L88.3872 15.4681L91.5683 27.6213M57.1362 23.5702L60.3988 35.7234M60.3988 35.7234L91.5683 27.6213M60.3988 35.7234L62.3501 43.1784M91.5683 27.6213L105.201 79.7064M62.3501 43.1784L93.5196 35.0763M62.3501 43.1784L74.3648 87.8085M74.3648 87.8085L105.201 79.7064M74.3648 87.8085L77.325 98.8043M105.201 79.7064L108.079 90.7021M77.325 98.8043L80.2851 109.8L110.957 101.698L108.079 90.7021M77.325 98.8043L108.079 90.7021M8.5234 33.4085V51.9277H26.4638V33.4085H8.5234Z" stroke="#FCFBFA" stroke-width="1.2"/>
</svg>