<svg xmlns="http://www.w3.org/2000/svg" width="9" height="9" viewBox="0 0 9 9" fill="none">
  <g clip-path="url(#clip0_150_662)">
    <path d="M4.5 3.93759C4.81066 3.93759 5.0625 3.68575 5.0625 3.37509C5.0625 3.06443 4.81066 2.81259 4.5 2.81259C4.18934 2.81259 3.9375 3.06443 3.9375 3.37509C3.9375 3.68575 4.18934 3.93759 4.5 3.93759Z" fill="#FCFBFA"/>
    <path d="M4.5 0.562592C2.94926 0.562592 1.6875 1.76933 1.6875 3.25204C1.6875 3.95816 2.00936 4.89718 2.6441 6.0431C3.15387 6.96314 3.74361 7.79511 4.05035 8.20908C4.10218 8.27981 4.16995 8.33733 4.24817 8.37698C4.32638 8.41663 4.41284 8.4373 4.50053 8.4373C4.58822 8.4373 4.67467 8.41663 4.75289 8.37698C4.8311 8.33733 4.89887 8.27981 4.9507 8.20908C5.25691 7.79511 5.84719 6.96314 6.35695 6.0431C6.99064 4.89753 7.3125 3.95851 7.3125 3.25204C7.3125 1.76933 6.05074 0.562592 4.5 0.562592ZM4.5 4.50009C4.2775 4.50009 4.05999 4.43411 3.87498 4.31049C3.68998 4.18688 3.54578 4.01118 3.46064 3.80561C3.37549 3.60004 3.35321 3.37384 3.39662 3.15561C3.44002 2.93739 3.54717 2.73693 3.7045 2.5796C3.86184 2.42226 4.06229 2.31512 4.28052 2.27171C4.49875 2.2283 4.72495 2.25058 4.93052 2.33573C5.13609 2.42088 5.31179 2.56507 5.4354 2.75008C5.55902 2.93508 5.625 3.15259 5.625 3.37509C5.62467 3.67336 5.50604 3.95932 5.29514 4.17023C5.08423 4.38113 4.79827 4.49977 4.5 4.50009Z" fill="#FCFBFA"/>
  </g>
  <defs>
    <clipPath id="clip0_150_662">
      <rect width="9" height="9" fill="white"/>
    </clipPath>
  </defs>
</svg>