<svg xmlns="http://www.w3.org/2000/svg" width="10" height="10" viewBox="0 0 10 10" fill="none">
  <path d="M8.43594 2.32202H2.46406C2.20018 2.3223 1.94718 2.42726 1.76058 2.61385C1.57399 2.80045 1.46903 3.05345 1.46875 3.31733V7.58296C1.46903 7.84685 1.57399 8.09984 1.76058 8.28644C1.94718 8.47304 2.20018 8.57799 2.46406 8.57827H8.43594C8.69982 8.57799 8.95282 8.47304 9.13942 8.28644C9.32601 8.09984 9.43097 7.84685 9.43125 7.58296V3.31733C9.43097 3.05345 9.32601 2.80045 9.13942 2.61385C8.95282 2.42726 8.69982 2.3223 8.43594 2.32202ZM8.18391 3.96838L5.62454 5.959C5.57463 5.9978 5.51321 6.01886 5.45 6.01886C5.38679 6.01886 5.32537 5.9978 5.27546 5.959L2.71609 3.96838C2.68602 3.94567 2.66076 3.91721 2.64179 3.88465C2.62281 3.8521 2.61049 3.8161 2.60555 3.77874C2.60061 3.74139 2.60314 3.70342 2.61299 3.66705C2.62285 3.63068 2.63984 3.59664 2.66296 3.56689C2.68609 3.53714 2.71491 3.51229 2.74772 3.49377C2.78054 3.47525 2.81671 3.46344 2.85413 3.45903C2.89155 3.45461 2.92948 3.45767 2.96571 3.46804C3.00194 3.47841 3.03574 3.49587 3.06516 3.51942L5.45 5.37425L7.83484 3.51942C7.89447 3.47438 7.96944 3.45463 8.04352 3.46444C8.1176 3.47424 8.18485 3.51281 8.23072 3.5718C8.27659 3.63079 8.29739 3.70547 8.28863 3.77969C8.27987 3.8539 8.24225 3.92168 8.18391 3.96838Z" fill="#FCFBFA"/>
</svg>