<svg xmlns="http://www.w3.org/2000/svg" width="10" height="10" viewBox="0 0 10 10" fill="none">
  <path d="M3.45938 9.14741C3.38395 9.14741 3.31162 9.11745 3.25829 9.06412C3.20496 9.01079 3.175 8.93846 3.175 8.86304V7.72554H2.74844C2.40916 7.72516 2.08388 7.59022 1.84398 7.35031C1.60407 7.1104 1.46913 6.78513 1.46875 6.44585V3.03335C1.46913 2.69407 1.60407 2.3688 1.84398 2.12889C2.08388 1.88898 2.40916 1.75404 2.74844 1.75366H8.15156C8.49084 1.75404 8.81612 1.88898 9.05602 2.12889C9.29593 2.3688 9.43087 2.69407 9.43125 3.03335V6.44585C9.43087 6.78513 9.29593 7.1104 9.05602 7.35031C8.81612 7.59022 8.49084 7.72516 8.15156 7.72554H5.26764L3.64155 9.08147C3.59038 9.12403 3.52593 9.14736 3.45938 9.14741Z" fill="#FCFBFA"/>
</svg>