<svg xmlns="http://www.w3.org/2000/svg" width="113" height="111" viewBox="0 0 113 111" fill="none">
  <path d="M15.0755 26.1077H11.2713V1H102.192V26.1077H96.8657M15.0755 26.1077H30.2923H35.2378M15.0755 26.1077V41.7049V43.607M15.0755 26.1077L35.2378 43.607M15.0755 82.4098V67.193V62.628M15.0755 82.4098H30.2923H35.2378M15.0755 82.4098L35.2378 62.628M96.8657 82.4098H78.2252M96.8657 82.4098L78.2252 62.628M96.8657 82.4098V62.628M96.8657 26.1077H78.2252M96.8657 26.1077V43.607M96.8657 26.1077L78.2252 43.607M35.2378 26.1077H78.2252M35.2378 26.1077V27.6294M35.2378 26.1077L15.0755 43.607M35.2378 82.4098H78.2252M35.2378 82.4098V64.9105V62.628M35.2378 82.4098L15.0755 62.628M78.2252 26.1077V27.6294M78.2252 26.1077L96.8657 43.607M78.2252 82.4098V62.628M78.2252 82.4098L96.8657 62.628M35.2378 62.628V46.2699V43.607M35.2378 62.628L15.0755 43.607M35.2378 27.6294H78.2252M35.2378 27.6294V29.9119M78.2252 27.6294V29.9119M35.2378 29.9119H44.3678M35.2378 29.9119V43.607M78.2252 29.9119H46.6503M78.2252 29.9119V43.607M44.3678 29.9119V33.3357L38.6615 41.7049H40.9441M44.3678 29.9119H46.6503M46.6503 29.9119V33.3357L52.3566 41.7049H50.0741M40.9441 41.7049C40.9441 41.7049 41.7049 45.1287 45.5091 45.1287C49.3133 45.1287 50.0741 41.7049 50.0741 41.7049M40.9441 41.7049H50.0741M65.6713 29.9119V33.3357L59.965 41.7049H62.2476M67.9538 29.9119V33.3357L73.6601 41.7049H71.3776M62.2476 41.7049C62.2476 41.7049 63.0084 45.1287 66.8126 45.1287C70.6168 45.1287 71.3776 41.7049 71.3776 41.7049M62.2476 41.7049H71.3776M35.2378 43.607L15.0755 62.628M15.0755 62.628V58.8238M15.0755 58.8238V46.2699V43.607M15.0755 58.8238H1V96.8657H27.249V89.2573C27.5315 86.7783 28.3382 86.2065 30.2923 85.8336H82.0294C84.4208 86.1852 85.1776 87.0191 85.8336 89.2573V96.8657H112.083V58.8238H96.8657M96.8657 58.8238V43.607M96.8657 58.8238V62.628M96.8657 43.607L78.2252 62.628M78.2252 62.628V43.607M78.2252 43.607L96.8657 62.628M17.7385 18.4993V7.08671H95.3441V9.74965H20.021V18.4993H17.7385ZM25.3469 98.3874V109.8H88.1161V98.3874H25.3469ZM30.2923 95.3441V88.1161H83.1706V95.3441H30.2923ZM8.22797 62.628C4.42378 62.628 3.66294 66.0517 3.66294 67.193C3.66294 68.3343 3.66294 71.3776 8.22797 71.3776C12.793 71.3776 12.793 68.7147 12.793 67.193C12.793 65.6713 12.0322 62.628 8.22797 62.628ZM8.22797 65.2909C6.70629 65.2909 6.70629 67.193 6.70629 67.193C6.70629 67.193 6.70629 68.7147 8.22797 68.7147C9.74965 68.7147 10.1301 67.5734 10.1301 67.193C10.1301 66.8126 9.74965 65.2909 8.22797 65.2909ZM8.60839 72.8993C4.8042 72.8993 4.04336 76.3231 4.04336 77.4643C4.04336 78.6056 4.04336 81.649 8.60839 81.649C13.1734 81.649 13.1734 78.986 13.1734 77.4643C13.1734 75.9427 12.4126 72.8993 8.60839 72.8993ZM8.60839 75.5622C7.08671 75.5622 7.08671 77.4643 7.08671 77.4643C7.08671 77.4643 7.08671 78.986 8.60839 78.986C10.1301 78.986 10.5105 77.8448 10.5105 77.4643C10.5105 77.0839 10.1301 75.5622 8.60839 75.5622ZM104.474 62.628C100.67 62.628 99.9091 66.0517 99.9091 67.193C99.9091 68.3343 99.9091 71.3776 104.474 71.3776C109.039 71.3776 109.039 68.7147 109.039 67.193C109.039 65.6713 108.278 62.628 104.474 62.628ZM104.474 65.2909C102.952 65.2909 102.952 67.193 102.952 67.193C102.952 67.193 102.952 68.7147 104.474 68.7147C105.996 68.7147 106.376 67.5734 106.376 67.193C106.376 66.8126 105.996 65.2909 104.474 65.2909ZM104.855 72.8993C101.05 72.8993 100.29 76.3231 100.29 77.4643C100.29 78.6056 100.29 81.649 104.855 81.649C109.42 81.649 109.42 78.986 109.42 77.4643C109.42 75.9427 108.659 72.8993 104.855 72.8993ZM104.855 75.5622C103.333 75.5622 103.333 77.4643 103.333 77.4643C103.333 77.4643 103.333 78.986 104.855 78.986C106.376 78.986 106.757 77.8448 106.757 77.4643C106.757 77.0839 106.376 75.5622 104.855 75.5622Z" stroke="#FCFBFA" stroke-width="1.2"/>
</svg>