<svg xmlns="http://www.w3.org/2000/svg" width="10" height="10" viewBox="0 0 10 10" fill="none">
  <path d="M6.81217 2.04781C6.4663 1.67439 5.98322 1.46875 5.45002 1.46875C4.91397 1.46875 4.42929 1.67314 4.08502 2.04425C3.73701 2.41945 3.56745 2.92937 3.60727 3.47999C3.68618 4.5663 4.51282 5.45 5.45002 5.45C6.38721 5.45 7.21243 4.56648 7.29259 3.48035C7.33294 2.9347 7.16231 2.42585 6.81217 2.04781Z" fill="#FCFBFA"/>
  <path d="M8.579 9.4313H2.32276C2.24087 9.43236 2.15977 9.41516 2.08537 9.38094C2.01097 9.34672 1.94513 9.29635 1.89264 9.23348C1.77711 9.09538 1.73055 8.90681 1.76503 8.7161C1.91504 7.88394 2.38319 7.18491 3.11901 6.69419C3.77271 6.25856 4.60078 6.0188 5.45088 6.0188C6.30098 6.0188 7.12905 6.25874 7.78275 6.69419C8.51857 7.18474 8.98673 7.88377 9.13673 8.71592C9.17121 8.90663 9.12465 9.0952 9.00912 9.2333C8.95665 9.2962 8.89082 9.34661 8.81641 9.38086C8.74201 9.41511 8.66091 9.43234 8.579 9.4313Z" fill="#FCFBFA"/>
</svg>