<svg xmlns="http://www.w3.org/2000/svg" width="10" height="10" viewBox="0 0 10 10" fill="none">
<path d="M7.84962 9.43151C7.50268 9.43151 7.01534 9.30603 6.28556 8.89831C5.39813 8.40065 4.71172 7.94121 3.82909 7.06089C2.9781 6.21043 2.56398 5.65981 1.98439 4.60514C1.32961 3.41432 1.44123 2.79011 1.566 2.52333C1.71459 2.20448 1.93391 2.01377 2.2174 1.82448C2.37842 1.71898 2.54881 1.62855 2.72643 1.55432C2.7442 1.54668 2.76073 1.5394 2.77548 1.53282C2.86346 1.49318 2.99676 1.43329 3.16561 1.49727C3.27829 1.53957 3.37889 1.62613 3.53636 1.78165C3.85931 2.10015 4.30062 2.80948 4.46343 3.15784C4.57273 3.39263 4.64507 3.54762 4.64525 3.72144C4.64525 3.92495 4.54287 4.08189 4.41864 4.25127C4.39535 4.28308 4.37225 4.31347 4.34985 4.34298C4.2146 4.52071 4.18492 4.57208 4.20447 4.66379C4.2441 4.8481 4.53967 5.39676 5.02542 5.88145C5.51117 6.36613 6.04402 6.64304 6.22904 6.68249C6.32466 6.70293 6.37709 6.67201 6.56051 6.53195C6.58682 6.51187 6.61383 6.49108 6.64209 6.47028C6.83156 6.32934 6.98121 6.22963 7.17992 6.22963H7.18098C7.35392 6.22963 7.50197 6.30463 7.74725 6.42833C8.06717 6.58972 8.79783 7.02534 9.11829 7.34864C9.27416 7.50576 9.36107 7.606 9.40355 7.71851C9.46754 7.88789 9.40728 8.02066 9.36801 8.10952C9.36143 8.12428 9.35414 8.14045 9.3465 8.1584C9.27169 8.3357 9.18072 8.50574 9.07474 8.66637C8.88581 8.94896 8.69439 9.16775 8.37483 9.31652C8.21073 9.39414 8.03114 9.43346 7.84962 9.43151Z" fill="#FCFBFA"/>
</svg>