<svg xmlns="http://www.w3.org/2000/svg" width="78" height="70" viewBox="0 0 78 70" fill="none">
  <path d="M47.9487 17.0535H44.6169L60.8218 1L76.8753 17.0535H74.1492M47.9487 17.0535H74.1492M47.9487 17.0535V29.0178M51.8864 42.1938V69H47.9487V42.1938M51.8864 42.1938H47.9487M51.8864 42.1938H57.0356M47.9487 42.1938V37.9532M47.9487 42.1938C47.9487 42.1938 42.6481 42.1938 42.0423 42.1938C41.4365 42.1938 40.2249 42.0423 39.3162 42.6481C38.4076 43.2539 37.3474 45.3742 37.3474 45.3742L27.049 62.9421C27.049 62.9421 25.5345 65.6682 23.5657 67.1826C21.5968 68.6971 18.7193 68.5457 17.2049 68.5457C15.6904 68.5457 6.30064 68.5457 6.30064 68.5457M74.1492 42.1938V69H69.9087V42.1938M74.1492 42.1938H69.9087M74.1492 42.1938V37.9532M69.9087 42.1938H64.9109M74.1492 17.0535V37.9532M47.9487 37.9532H74.1492M47.9487 37.9532V36.7416M57.0356 69V67.3341M57.0356 42.1938H64.9109M57.0356 42.1938V45.6771M64.9109 69V67.3341M64.9109 42.1938V45.6771M57.0356 45.6771H64.9109M57.0356 45.6771V49.7661M64.9109 45.6771V49.7661M57.0356 49.7661H64.9109M57.0356 49.7661V54.0067M64.9109 49.7661V54.0067M57.0356 54.0067H64.9109M57.0356 54.0067V57.7929M64.9109 54.0067V57.7929M57.0356 57.7929H64.9109M57.0356 57.7929V61.2762M64.9109 57.7929V61.2762M57.0356 61.2762H64.9109M57.0356 61.2762V64.4566M64.9109 61.2762V64.4566M57.0356 64.4566H64.9109M57.0356 64.4566V67.3341M64.9109 64.4566V67.3341M57.0356 67.3341H64.9109M47.9487 36.7416V30.3808M47.9487 36.7416H44.1626M6.30064 65.0624H12.51C12.51 65.0624 14.0245 62.9421 15.5389 62.4878C17.0534 62.0334 17.8107 62.7906 18.7193 62.4878C19.628 62.1849 20.5367 61.2762 20.5367 61.2762L20.9923 60.5189M6.30064 65.0624C6.30064 65.0624 4.93761 65.0624 4.78616 66.7283C4.63472 68.3942 6.30064 68.5457 6.30064 68.5457M6.30064 65.0624V35.2272M6.30064 68.5457H1V29.0178H6.30064V31.1381M39.3162 36.8097C39.8461 36.7092 40.0735 36.7416 40.0735 36.7416H44.1626M39.3162 36.8097C38.7019 36.9262 37.6808 37.2214 36.1358 37.9532C33.2583 39.3163 31.7438 42.6481 31.7438 42.6481L30.5323 44.6619M39.3162 36.8097V30.3808M39.3162 30.3808H44.1626M39.3162 30.3808H37.6503C37.6503 30.3808 37.196 30.3808 37.196 29.7751C37.196 29.1693 37.6503 29.0178 37.6503 29.0178H47.9487M47.9487 30.3808H44.1626M47.9487 30.3808V29.0178M44.1626 30.3808V36.7416M30.5323 44.6619V29.0178H24.9287V31.1381M30.5323 44.6619L24.9287 53.9759M24.9287 53.9759V35.2272M24.9287 53.9759L22.2027 58.5071M6.30064 31.1381H24.9287M6.30064 31.1381V35.2272M24.9287 31.1381V35.2272M6.30064 35.2272H11.2984M24.9287 35.2272H20.0824M11.2984 35.2272V55.6726M11.2984 35.2272H20.0824M11.2984 55.6726H9.17817V60.5189H20.9923M11.2984 55.6726H20.0824M20.9923 60.5189L22.2027 58.5071M22.2027 58.5071V55.6726H20.0824M20.0824 55.6726V35.2272M68.2428 27.8062C68.2428 31.8211 64.9881 35.0757 60.9733 35.0757C56.9584 35.0757 53.7038 31.8211 53.7038 27.8062C53.7038 23.7914 56.9584 20.5367 60.9733 20.5367C64.9881 20.5367 68.2428 23.7914 68.2428 27.8062Z" stroke="#FCFBFA" stroke-width="0.7"/>
</svg>