<svg xmlns="http://www.w3.org/2000/svg" width="19" height="21" viewBox="0 0 19 21" fill="none">
  <path d="M3.79932 4.26733C3.79932 4.09473 3.93945 3.9563 4.11035 3.9563C4.28296 3.9563 4.42139 4.09644 4.42139 4.26733V9.96338C4.42139 10.136 4.28125 10.2744 4.11035 10.2744H0.422363C0.251465 10.2761 0.111328 10.136 0.111328 9.96509V0.669922C0.111328 0.487061 0.186523 0.31958 0.307861 0.196533L0.30957 0.194824C0.432617 0.0751953 0.598389 0 0.782959 0H3.75146C3.93433 0 4.10352 0.0751953 4.22485 0.198242C4.34619 0.31958 4.42139 0.487061 4.42139 0.671631V1.46118C4.42139 1.63379 4.28125 1.77222 4.11035 1.77222C3.93774 1.77222 3.79932 1.63208 3.79932 1.46118V0.669922C3.79932 0.657959 3.79419 0.645996 3.78564 0.635742C3.7771 0.627197 3.76514 0.62207 3.75146 0.62207H0.782959C0.769287 0.62207 0.757324 0.627197 0.748779 0.635742L0.74707 0.637451C0.738525 0.645996 0.733398 0.657959 0.733398 0.671631V9.65405H3.79932V4.26733ZM3.79761 17.0693L0.147217 10.1086C0.0686035 9.95654 0.126709 9.77026 0.278809 9.68994C0.324951 9.66601 0.374512 9.65405 0.422363 9.65405V9.65234H16.5774C16.75 9.65234 16.8884 9.79248 16.8884 9.96338C16.8884 9.97534 16.8884 9.9873 16.8867 9.99927C16.7996 13.7146 14.9778 14.7605 13.4448 15.6389C12.5493 16.1533 11.7649 16.6028 11.6179 17.5547L11.6162 17.5632C11.5598 17.9358 11.5906 18.363 11.7085 18.8467C11.8315 19.3508 12.0486 19.9182 12.3647 20.5488C12.4416 20.7026 12.3784 20.8889 12.2246 20.9658C12.1802 20.988 12.1323 20.9983 12.0862 20.9983H2.33472C2.16211 20.9983 2.02368 20.8582 2.02368 20.6873C2.02368 20.6274 2.04077 20.571 2.07153 20.5232L3.79761 17.0693ZM0.936768 10.2761L4.42139 16.9224C4.46582 17.0078 4.46924 17.1121 4.4231 17.2043L2.83716 20.3779H11.594C11.3718 19.884 11.2095 19.4226 11.1052 18.9954C10.9668 18.428 10.9326 17.9204 11.001 17.4727L11.0027 17.4624C11.1958 16.2148 12.1016 15.6953 13.1355 15.1023C14.489 14.3264 16.0903 13.407 16.2561 10.2778H0.936768V10.2761ZM4.14624 17.377C3.97363 17.377 3.83521 17.2368 3.83521 17.0659C3.83521 16.8933 3.97534 16.7549 4.14624 16.7549H7.54541C7.71802 16.7549 7.85645 16.895 7.85645 17.0659C7.85645 17.2385 7.71631 17.377 7.54541 17.377H4.14624ZM4.41968 10.0112C4.39404 10.1804 4.23511 10.2983 4.06592 10.2727C3.89673 10.2471 3.77881 10.0881 3.80444 9.91894C3.854 9.59766 3.93433 9.30713 4.04712 9.05249C4.16504 8.7876 4.31714 8.56372 4.50342 8.38086C5.1084 7.78955 5.87744 7.80322 6.6123 7.81689C6.67725 7.8186 6.74048 7.8186 6.90625 7.8186H13.5645C15.1436 7.80835 16.8936 7.79639 16.885 10.0403C16.885 10.2112 16.7466 10.3496 16.5757 10.3496C16.4048 10.3496 16.2664 10.2112 16.2664 10.0403C16.2732 8.42017 14.8513 8.43042 13.5696 8.43896C13.3765 8.44067 13.3816 8.44238 13.2671 8.44238H6.90796L6.60376 8.43725C5.99536 8.427 5.35791 8.41504 4.9375 8.8269C4.80591 8.95508 4.69995 9.11401 4.6145 9.30371C4.52563 9.50195 4.46069 9.73779 4.41968 10.0112ZM2.7312 1.90894C3.21484 1.90894 3.6062 2.30029 3.6062 2.78394C3.6062 3.26758 3.21484 3.65894 2.7312 3.65894C2.24756 3.65894 1.8562 3.26758 1.8562 2.78394C1.8562 2.30029 2.24927 1.90894 2.7312 1.90894ZM3.6062 3.09497C3.43359 3.09497 3.29517 2.95483 3.29517 2.78394C3.29517 2.61133 3.4353 2.4729 3.6062 2.4729H5.70483C5.87744 2.4729 6.01587 2.61304 6.01587 2.78394C6.01587 2.95654 5.87573 3.09497 5.70483 3.09497H3.6062Z" fill="#22401E"/>
</svg>