<svg xmlns="http://www.w3.org/2000/svg" width="70" height="70" viewBox="0 0 70 70" fill="none">
  <path d="M40.9458 16.4545C41.8155 15.0413 42.6431 12.4082 43.3311 9.71074M40.9458 16.4545C40.9458 16.4545 47.1277 19.8264 50.2187 25.1653C53.3096 30.5041 52.1854 38.0909 52.1854 38.0909M40.9458 16.4545C40.2555 17.5762 38.9295 18.8832 37.293 20.2212M8.35072 33.0331C8.35072 33.0331 4.69783 33.595 3.01188 35.843C1.32593 38.0909 2.16876 42.5868 2.4499 42.8678M8.35072 33.0331C8.35072 33.0331 11.1608 35.843 14.8137 36.686C18.4666 37.5289 20.9955 35.843 24.6484 37.2479C28.3013 38.6529 30.5491 44.5537 30.5491 44.5537M8.35072 33.0331C8.35072 33.0331 14.4125 31.6554 19.5906 30.0576M2.4499 42.8678C2.73104 43.1488 11.4415 44.8347 17.3425 45.1157C23.2434 45.3967 28.301 45.3967 30.5491 44.5537M2.4499 42.8678C2.4499 42.8678 1.32609 43.1488 1.0451 44.5537C0.764106 45.9587 1.88807 47.3636 1.88807 47.3636L6.60467 50.1736M30.5491 44.5537C32.7972 43.7107 34.4828 42.0248 40.1028 40.0579C45.7228 38.0909 52.1854 38.0909 52.1854 38.0909M52.1854 38.0909H68.202M52.1854 38.0909C52.1854 38.0909 55.2765 29.9421 58.0864 26.2893C60.8963 22.6364 68.202 20.6694 68.202 20.6694M68.202 38.0909V20.6694M68.202 38.0909C68.202 38.0909 69.607 38.9339 69.607 40.3388C69.607 41.7438 68.202 42.5868 68.202 42.5868C68.202 42.5868 69.607 43.7107 69.607 45.3967C69.607 47.0826 68.202 48.2066 68.202 48.2066H64.8302M43.3311 9.71074C44.4213 5.43619 45.1606 1 45.1606 1C45.1606 1 47.7853 2.44358 51.0616 3.89576M43.3311 9.71074C43.3311 9.71074 45.2083 11.045 47.6897 12.4414M68.202 16.4545V7.46281C68.202 7.46281 60.8962 7.46281 55.8383 5.77686C54.237 5.24309 52.5794 4.56851 51.0616 3.89576M68.202 16.4545C68.202 16.4545 59.2104 16.4545 54.4335 15.3306C52.2589 14.8189 49.7634 13.6084 47.6897 12.4414M68.202 16.4545V20.6694M47.6897 12.4414L51.0616 3.89576M19.5906 30.0576L21.2765 33.595M19.5906 30.0576C21.3855 29.5038 23.0742 28.9235 24.3674 28.3649M24.3674 28.3649C24.6715 28.2336 24.9537 28.1035 25.2102 27.9752C26.2378 27.4614 27.5002 26.7715 28.8633 25.9692M24.3674 28.3649L25.7724 31.0661M28.8633 25.9692L30.5491 28.8182M28.8633 25.9692C30.213 25.1747 31.6614 24.2701 33.0782 23.3171M33.0782 23.3171L35.0451 26.5702M33.0782 23.3171C34.5686 22.3146 36.0241 21.2586 37.293 20.2212M37.293 20.2212L39.541 23.3171M13.6897 54.3945C12.6275 55.9029 12.0038 57.7422 12.0038 59.7273C12.0038 60.8111 12.1897 61.8514 12.5314 62.8182M13.6897 54.3945C15.3679 52.0114 18.1404 50.4545 21.2765 50.4545C24.4126 50.4545 27.185 52.0114 28.8632 54.3943M13.6897 54.3945L6.60467 50.1736M6.60467 50.1736L2.73095 52.4215C2.73095 52.4215 1.60699 53.5455 1.60699 54.9504C1.60699 56.3554 2.73095 57.4793 2.73095 57.4793C2.73095 57.4793 9.19376 63.0992 10.0367 63.3802C10.8797 63.6612 12.5314 62.8182 12.5314 62.8182M12.5314 62.8182C13.8044 66.4197 17.2391 69 21.2765 69C26.3977 69 30.5492 64.8485 30.5492 59.7273C30.5492 57.7422 29.9254 55.9027 28.8632 54.3943M28.8632 54.3943C28.8632 54.3943 29.7063 54.1074 30.5492 53.2645C31.3921 52.4215 31.9541 49.3306 31.9541 49.3306H47.6896C47.6896 49.3306 48.2516 52.1346 49.0946 53.2645C49.9376 54.3943 51.9415 54.9504 51.9415 54.9504M51.9415 54.9504C51.2019 56.2821 50.7806 57.815 50.7806 59.4463C50.7806 64.5675 54.9322 68.719 60.0534 68.719C65.1745 68.719 69.3261 64.5675 69.3261 59.4463C69.3261 55.8428 67.2706 52.7194 64.2681 51.1846M51.9415 54.9504C53.5239 52.1015 56.5635 50.1736 60.0534 50.1736C61.5711 50.1736 63.0036 50.5382 64.2681 51.1846M51.3425 48.2066H64.8302M64.8302 48.2066L64.2681 51.1846M38.4169 46.2397C38.4169 46.2397 45.4417 43.4298 49.0946 42.5868C52.7475 41.7438 62.3012 42.5868 62.3012 42.5868M26.0534 60.0083C26.0534 62.4913 24.0405 64.5041 21.5575 64.5041C19.0745 64.5041 17.0616 62.4913 17.0616 60.0083C17.0616 57.5253 19.0745 55.5124 21.5575 55.5124C24.0405 55.5124 26.0534 57.5253 26.0534 60.0083ZM64.8302 60.0083C64.8302 62.4913 62.8174 64.5041 60.3344 64.5041C57.8514 64.5041 55.8385 62.4913 55.8385 60.0083C55.8385 57.5253 57.8514 55.5124 60.3344 55.5124C62.8174 55.5124 64.8302 57.5253 64.8302 60.0083Z" stroke="#FCFBFA" stroke-width="0.7"/>
</svg>