<svg xmlns="http://www.w3.org/2000/svg" width="106" height="70" viewBox="0 0 106 70" fill="none">
  <path d="M1 47.3228C1 47.3228 2.54409 46.5508 5.63228 46.5508M5.63228 46.5508C8.72047 46.5508 13.3527 52.7271 19.5291 52.7271C25.7055 52.7271 29.5657 46.5508 37.2862 46.5508C38.4599 46.5508 39.473 46.6935 40.3744 46.9356M5.63228 46.5508V19.5291H100.594V49.8753M105.226 46.5508C105.226 46.5508 103.527 48.2505 100.594 49.8753M1 55.8153C1 55.8153 2.54409 55.0433 5.63228 55.0433C8.72047 55.0433 13.3527 61.2197 19.5291 61.2197C25.7055 61.2197 29.5657 55.0433 37.2862 55.0433C45.0067 55.0433 45.7787 61.2197 53.4992 61.2197C61.2197 61.2197 62.7637 55.0433 70.4842 55.0433C78.2047 55.0433 78.2047 60.4476 88.2413 61.2197C98.2779 61.9917 105.226 55.0433 105.226 55.0433M1 63.5358C1 63.5358 2.54409 62.7637 5.63228 62.7637C8.72047 62.7637 13.3527 68.9401 19.5291 68.9401C25.7055 68.9401 29.5657 62.7637 37.2862 62.7637C45.0067 62.7637 45.7787 68.9401 53.4992 68.9401C61.2197 68.9401 62.7637 62.7637 70.4842 62.7637C78.2047 62.7637 78.2047 68.1681 88.2413 68.9401C98.2779 69.7122 105.226 62.7637 105.226 62.7637M40.3744 46.9356C45.402 48.286 46.9524 52.7271 53.4992 52.7271C61.2197 52.7271 62.7637 46.5508 70.4842 46.5508C78.2047 46.5508 78.2047 51.9551 88.2413 52.7271C93.3138 53.1173 97.5975 51.5355 100.594 49.8753M40.3744 46.9356V41.1464M50.411 19.5291V5.63228C50.411 5.63228 48.8669 1 45.0067 1C41.1464 1 40.3744 5.63228 40.3744 5.63228V30.3378M63.5358 48.6369V41.1464M73.5724 19.5291V5.63228C73.5724 5.63228 72.0283 1 68.1681 1C64.3078 1 63.5358 5.63228 63.5358 5.63228V30.3378M40.3744 30.3378H63.5358M40.3744 30.3378V41.1464M63.5358 30.3378V41.1464M40.3744 41.1464H63.5358" stroke="#FCFBFA" stroke-width="0.7"/>
</svg>