<svg xmlns="http://www.w3.org/2000/svg" width="21" height="21" viewBox="0 0 21 21" fill="none">
  <g clip-path="url(#clip0_145_1937)">
    <path d="M11.4861 18.3253C11.2973 18.4791 11.1075 18.5998 10.9165 18.691C10.7868 18.7049 10.6563 18.715 10.525 18.7227V17.2006C10.2111 16.9437 9.8954 16.6769 9.57868 16.4028V18.723C9.44747 18.715 9.31686 18.7048 9.18749 18.691C8.99648 18.5998 8.80643 18.479 8.61761 18.3253C8.00214 17.8244 7.42608 16.9788 6.98433 15.8905H8.99588C8.65303 15.584 8.30985 15.2683 7.96672 14.9442H6.65351C6.49668 14.4227 6.37046 13.8602 6.27432 13.2703C5.90066 12.8837 5.53776 12.4962 5.18535 12.1093C5.26452 13.1166 5.42684 14.0721 5.66865 14.9442H3.25145C2.57466 13.8504 2.15511 12.5825 2.07562 11.2203H4.39612C4.12196 10.9036 3.85516 10.5879 3.59857 10.274H2.07566C2.10829 9.71579 2.20105 9.17483 2.34182 8.65392C2.02052 8.2156 1.71922 7.78373 1.44139 7.36075C1.02829 8.40995 0.798828 9.5516 0.798828 10.7474C0.799107 15.8579 4.9411 19.9995 10.0516 19.9999C11.2471 19.9999 12.3887 19.7704 13.4376 19.3576C12.8742 18.987 12.2944 18.5752 11.7049 18.1288C11.6324 18.1987 11.5597 18.2653 11.4861 18.3253ZM4.4011 16.3979C4.23906 16.2359 4.08502 16.0659 3.93748 15.8906H5.97581C6.12765 16.3046 6.29464 16.6989 6.48158 17.0611C6.70184 17.4869 6.94584 17.8741 7.21228 18.2173C6.14829 17.8128 5.19276 17.189 4.4011 16.3979Z" fill="#22401E"/>
    <path d="M3.32422 4.39781C3.52631 4.75975 3.75609 5.13683 4.00901 5.52523C4.13532 5.3786 4.26346 5.23381 4.40052 5.09675C5.19373 4.30414 6.15145 3.67911 7.21787 3.27466C6.72221 3.91108 6.30545 4.70058 5.97371 5.6038H4.05926C4.2619 5.91243 4.48032 6.22851 4.71166 6.55009H5.67062C5.58344 6.86398 5.50857 7.19054 5.44112 7.52443C5.69464 7.85035 5.95988 8.17994 6.23588 8.51204C6.33541 7.81644 6.47522 7.15568 6.65763 6.55005H9.57817V10.274H7.78042C8.0728 10.5904 8.37218 10.9061 8.6787 11.2203H9.57817V12.1198C9.89238 12.426 10.2081 12.7261 10.5245 13.0181V11.2203H14.0208C13.982 12.5788 13.776 13.8468 13.4454 14.9443H12.7526C13.2073 15.3105 13.6561 15.6553 14.0951 15.9753C14.1059 15.9463 14.1185 15.9198 14.1293 15.8906H16.1658C16.0179 16.0659 15.8642 16.2359 15.7022 16.398C15.5654 16.5347 15.4218 16.6647 15.2752 16.791C15.663 17.0436 16.0394 17.2728 16.4005 17.4748C18.1875 15.788 19.3044 13.3988 19.3044 10.7475C19.3041 5.63707 15.1618 1.4948 10.051 1.49448C7.39968 1.4948 5.01108 2.61146 3.32422 4.39781ZM16.8517 14.9444H14.432C14.7444 13.8184 14.9335 12.5585 14.9702 11.2204H18.0276C17.9481 12.5826 17.5285 13.8505 16.8517 14.9444ZM16.8511 6.55009C17.5282 7.64396 17.9478 8.91219 18.0275 10.274H14.9671C14.9301 8.93713 14.7465 7.67536 14.4342 6.55009H16.8511ZM15.7018 5.09675C15.8638 5.25879 16.0175 5.42853 16.1651 5.6038H14.1274C13.9755 5.1901 13.8082 4.79581 13.6216 4.43355C13.4013 4.00814 13.1573 3.62094 12.8912 3.27744C13.9548 3.6819 14.9101 4.30601 15.7018 5.09675ZM10.5245 2.77163C10.656 2.77964 10.7866 2.7898 10.9163 2.80366C11.1073 2.89455 11.2967 3.01531 11.4856 3.16899C12.101 3.66959 12.6768 4.51547 13.1185 5.60376H10.5245V2.77163ZM10.5245 6.55009H13.4494C13.7799 7.64735 13.9847 8.91681 14.0239 10.274H10.5245V6.55009ZM8.61706 3.16899C8.80588 3.01527 8.99534 2.89455 9.18635 2.80334C9.316 2.78948 9.44665 2.77932 9.57813 2.77131V5.6038H6.98901C7.09344 5.34593 7.20313 5.09707 7.3217 4.86789C7.70185 4.13102 8.14914 3.55129 8.61706 3.16899Z" fill="#22401E"/>
    <path d="M20.2428 17.1038C20.0512 16.5871 19.7851 16.0287 19.4592 15.4366C19.2364 15.8808 18.9839 16.3081 18.7029 16.7141C18.8455 17.0089 18.9651 17.2861 19.0596 17.5418C19.2521 18.0578 19.339 18.4881 19.3374 18.7758C19.3374 18.9123 19.3193 19.0149 19.2955 19.0839C19.2715 19.1532 19.2463 19.1893 19.2173 19.2191C19.188 19.2475 19.1523 19.2724 19.0827 19.2968C19.014 19.3201 18.9114 19.3383 18.7749 19.3383C18.5032 19.3395 18.104 19.2628 17.6262 19.0919C17.1476 18.9221 16.5891 18.6624 15.9764 18.3218C13.8758 17.1543 11.1475 15.0343 8.45731 12.3423C5.76531 9.65218 3.64534 6.9238 2.47752 4.82291C2.13686 4.2102 1.87748 3.65203 1.70742 3.1733C1.53677 2.69554 1.45976 2.29634 1.46099 2.02461C1.46099 1.88782 1.47948 1.78527 1.50291 1.71685C1.52693 1.64725 1.55191 1.61183 1.58052 1.58226C1.61072 1.55302 1.64642 1.52772 1.71607 1.50373C1.78476 1.4803 1.88732 1.46181 2.02442 1.46181C2.31181 1.4603 2.74217 1.54716 3.25723 1.73909C3.51382 1.83396 3.79233 1.95408 4.08869 2.097C4.49469 1.81607 4.92098 1.5635 5.36552 1.34077C4.77221 1.01389 4.21252 0.747456 3.69499 0.555847C3.08936 0.333121 2.53952 0.201876 2.02446 0.200043C1.7795 0.200401 1.54044 0.231201 1.31126 0.308537C1.08271 0.385515 0.86457 0.513055 0.688102 0.690479C0.511275 0.86635 0.384054 1.08418 0.307634 1.31244C0.230337 1.5413 0.199538 1.78005 0.199219 2.02465C0.200773 2.51138 0.318113 3.02855 0.518646 3.59569C0.720096 4.16218 1.00872 4.77705 1.37501 5.43627C2.62997 7.68836 4.80603 10.474 7.56517 13.2344C10.3256 15.9936 13.1113 18.1696 15.363 19.4246C16.0226 19.7909 16.6374 20.0795 17.2039 20.281C17.771 20.4812 18.2882 20.5986 18.7749 20.6001C19.0195 20.6001 19.2583 20.569 19.4872 20.492C19.7151 20.4153 19.9329 20.2884 20.1091 20.1116C20.2866 19.9347 20.4141 19.7166 20.4908 19.4887C20.5681 19.2595 20.5989 19.0204 20.5992 18.7759C20.5974 18.2602 20.4661 17.71 20.2428 17.1038Z" fill="#22401E"/>
  </g>
  <defs>
    <clipPath id="clip0_145_1937">
      <rect width="20.4" height="20.4" fill="white" transform="translate(0.199219 0.200195)"/>
    </clipPath>
  </defs>
</svg>