<svg xmlns="http://www.w3.org/2000/svg" width="232" height="266" viewBox="0 0 232 266" fill="none">
  <path d="M47.8343 223.056C37.3485 222.439 21.3109 219.972 10.8249 200.85C0.338949 181.729 3.42306 166.925 3.42306 166.925L31.7969 27.5234C31.7969 27.5234 34.881 17.0374 43.5165 9.01869C52.152 1 62.0212 1 62.0212 1C62.0212 1 152.077 1 162.563 1C173.049 1 182.918 3.46729 187.853 6.5514C192.788 9.63551 198.956 18.8879 200.806 27.5234C202.657 36.1589 227.946 159.523 229.18 166.925C230.414 174.327 229.797 185.43 219.928 200.85C210.058 216.271 194.638 223.056 184.152 223.056M47.8343 223.056L3.42306 263.766H43.5163L55.2359 252.664H177.984L191.554 265H229.18L184.152 223.056M47.8343 223.056C51.2889 223.259 66.1251 223.329 84.8434 223.33M184.152 223.056C180.66 223.056 165.534 223.124 146.526 223.193M84.8434 223.33L76.8247 230.458H152.694L146.526 223.193M84.8434 223.33C104.018 223.332 127.265 223.262 146.526 223.193M87.3107 20.7383H145.909C145.909 20.7383 154.544 21.3551 153.928 30.6075C153.311 39.8598 145.909 39.8598 145.909 39.8598H87.3107C87.3107 39.8598 78.0584 38.6262 78.0584 30.6075C78.0584 22.5888 87.3107 20.7383 87.3107 20.7383ZM64.4883 58.3645H165.03C165.03 58.3645 169.965 58.3645 173.049 60.215C176.133 62.0654 177.984 66.3832 177.984 66.3832C177.984 66.3832 189.703 124.364 190.32 127.449C190.937 130.533 190.32 133.617 187.236 138.551C184.152 143.486 177.984 144.103 177.984 144.103H52.1518C52.1518 144.103 46.6004 142.869 43.5163 138.551C40.4322 134.234 40.4322 127.449 40.4322 127.449L54.0023 66.3832C54.0023 66.3832 54.6191 62.0654 56.4696 60.215C58.3201 58.3645 64.4883 58.3645 64.4883 58.3645ZM72.507 178.645C72.507 190.568 62.8413 200.234 50.9182 200.234C38.995 200.234 29.3294 190.568 29.3294 178.645C29.3294 166.722 38.995 157.056 50.9182 157.056C62.8413 157.056 72.507 166.722 72.507 178.645ZM201.423 179.262C201.423 191.185 191.757 200.85 179.834 200.85C167.911 200.85 158.245 191.185 158.245 179.262C158.245 167.339 167.911 157.673 179.834 157.673C191.757 157.673 201.423 167.339 201.423 179.262Z" stroke="white" stroke-width="2"/>
</svg>