<svg xmlns="http://www.w3.org/2000/svg" width="9" height="9" viewBox="0 0 9 9" fill="none">
  <g clip-path="url(#clip0_149_592)">
    <path d="M4.59754 1.78031C4.57137 1.75528 4.53655 1.7413 4.50033 1.7413C4.46412 1.7413 4.4293 1.75528 4.40313 1.78031L1.16699 4.87178C1.15325 4.88492 1.14231 4.90072 1.13485 4.91822C1.12739 4.93571 1.12355 4.95454 1.12357 4.97355L1.12305 7.875C1.12305 8.02419 1.18231 8.16726 1.2878 8.27275C1.39329 8.37824 1.53636 8.4375 1.68555 8.4375H3.37481C3.4494 8.4375 3.52093 8.40787 3.57368 8.35513C3.62642 8.30238 3.65606 8.23084 3.65606 8.15625V5.76563C3.65606 5.72833 3.67087 5.69256 3.69724 5.66619C3.72362 5.63982 3.75938 5.625 3.79668 5.625H5.20293C5.24023 5.625 5.276 5.63982 5.30237 5.66619C5.32874 5.69256 5.34356 5.72833 5.34356 5.76563V8.15625C5.34356 8.23084 5.37319 8.30238 5.42593 8.35513C5.47868 8.40787 5.55021 8.4375 5.62481 8.4375H7.31336C7.46255 8.4375 7.60562 8.37824 7.71111 8.27275C7.8166 8.16726 7.87586 8.02419 7.87586 7.875V4.97355C7.87588 4.95454 7.87205 4.93571 7.86458 4.91822C7.85712 4.90072 7.84619 4.88492 7.83244 4.87178L4.59754 1.78031Z" fill="#FCFBFA"/>
    <path d="M8.62928 4.2917L7.31444 3.03381V1.125C7.31444 1.05041 7.2848 0.978871 7.23206 0.926127C7.17932 0.873382 7.10778 0.84375 7.03319 0.84375H6.18944C6.11484 0.84375 6.04331 0.873382 5.99056 0.926127C5.93782 0.978871 5.90819 1.05041 5.90819 1.125V1.6875L4.89006 0.714024C4.79479 0.617695 4.65311 0.5625 4.5 0.5625C4.34743 0.5625 4.2061 0.617695 4.11083 0.714199L0.37196 4.29135C0.262624 4.39682 0.248913 4.57032 0.348405 4.68458C0.373389 4.71342 0.40398 4.73687 0.438317 4.75351C0.472654 4.77015 0.510017 4.77964 0.548135 4.78138C0.586252 4.78312 0.624325 4.77709 0.660037 4.76365C0.69575 4.75021 0.728354 4.72965 0.755866 4.70321L4.40332 1.21781C4.4295 1.19278 4.46432 1.17881 4.50053 1.17881C4.53675 1.17881 4.57157 1.19278 4.59774 1.21781L8.24555 4.70321C8.29928 4.75474 8.37126 4.78286 8.44569 4.78141C8.52013 4.77996 8.59095 4.74906 8.64264 4.69547C8.75057 4.58368 8.7416 4.39911 8.62928 4.2917Z" fill="#FCFBFA"/>
  </g>
  <defs>
    <clipPath id="clip0_149_592">
      <rect width="9" height="9" fill="white"/>
    </clipPath>
  </defs>
</svg>