<svg xmlns="http://www.w3.org/2000/svg" width="20" height="20" viewBox="0 0 20 20" fill="none">
<path d="M7.8125 18.5273C7.8125 19.3408 8.47203 20.0001 9.28531 20.0001H9.38363C10.1969 20.0001 10.8564 19.3408 10.8564 18.5273V13.2234H7.8125V18.5273Z" fill="#22401E"/>
<path d="M17.2186 2.57465L17.2175 2.57156H16.7019V1.70234C16.7014 0.762031 15.9399 0.000585938 14.9996 0H3.34488C2.40461 0.000585938 1.64313 0.762031 1.64258 1.70234V4.76219C1.64313 5.7025 2.40461 6.46395 3.34488 6.46449H14.9996C15.9399 6.46395 16.7013 5.7025 16.7019 4.76219V3.80684H16.9748C17.1088 3.80684 17.2174 3.91543 17.2174 4.04941V4.35438V6.15473C17.2174 6.48926 17.0135 6.79113 16.7024 6.91621L16.6849 6.92316L9.99789 10.1373L9.99871 10.1387C9.27543 10.4459 8.80246 11.1539 8.80246 11.9424V12.5577H9.94328V11.9424C9.94328 11.6071 10.1469 11.3057 10.458 11.1807L10.4758 11.1734L17.1622 7.95957L17.1614 7.95816C17.8853 7.65098 18.3582 6.94297 18.3582 6.15477V3.76617C18.358 2.97629 17.9684 2.5752 17.2186 2.57465ZM15.5611 4.76215C15.5608 4.91867 15.4993 5.0557 15.3964 5.15902C15.2931 5.26176 15.1564 5.32336 14.9996 5.32363H3.34488C3.18809 5.32336 3.05129 5.2618 2.94797 5.15902C2.84523 5.0557 2.78367 4.91863 2.78336 4.76215V1.70234C2.78367 1.54555 2.8452 1.40879 2.94797 1.30516C3.05129 1.20266 3.18805 1.14109 3.34488 1.14082L9.41199 1.17647L14.9996 1.14082C15.1564 1.14113 15.2931 1.20266 15.3964 1.30516C15.4993 1.40875 15.5608 1.54555 15.5611 1.70234V4.76215Z" fill="#22401E"/>
</svg>