<svg xmlns="http://www.w3.org/2000/svg" width="21" height="21" viewBox="0 0 21 21" fill="none">
  <g clip-path="url(#clip0_145_1926)">
    <path d="M20.6493 12.0101V11.5522C20.6493 8.66332 18.2991 6.31313 15.4102 6.31313H9.02106C8.88349 5.90584 8.49803 5.61168 8.04489 5.61168H7.67222V5.23901C7.67222 4.6709 7.21005 4.20874 6.64195 4.20874H6.62004V3.46348H10.1493C10.7174 3.46348 11.1795 3.00132 11.1795 2.43321C11.1795 1.8651 10.7174 1.40294 10.1493 1.40294H6.62004V1.03027C6.62004 0.462164 6.15788 0 5.58977 0C5.02167 0 4.5595 0.462164 4.5595 1.03027V1.40294H1.03027C0.462164 1.40294 0 1.8651 0 2.43321C0 3.00132 0.462164 3.46348 1.03027 3.46348H4.5595V4.20878H4.5376C3.96949 4.20878 3.50733 4.67094 3.50733 5.23905V5.61172H3.13466C2.68152 5.61172 2.29605 5.90588 2.15849 6.31317H0.328822C0.147246 6.31317 0 6.46037 0 6.64199V10.8508C0 11.0323 0.147205 11.1796 0.328822 11.1796H2.15849C2.29605 11.5869 2.68152 11.881 3.13466 11.881H8.04489C8.49803 11.881 8.88349 11.5869 9.02106 11.1796H15.4102C15.6157 11.1796 15.7829 11.3468 15.7829 11.5523V12.0102C15.574 12.1262 15.4322 12.349 15.4322 12.6045V13.6566C15.4322 14.0314 15.737 14.3362 16.1117 14.3362H20.3205C20.6952 14.3362 21 14.0314 21 13.6566V12.6045C21 12.3489 20.8582 12.1261 20.6493 12.0101ZM2.10439 10.5219H0.657604V6.97077H2.10435L2.10439 10.5219ZM5.21711 1.03027C5.21711 0.824783 5.38428 0.657604 5.58977 0.657604C5.79526 0.657604 5.96244 0.824783 5.96244 1.03027V1.40294H5.21715L5.21711 1.03027ZM1.03027 2.80584C0.824783 2.80584 0.657604 2.63866 0.657604 2.43317C0.657604 2.22768 0.824783 2.0605 1.03027 2.0605H10.1493C10.3548 2.0605 10.5219 2.22768 10.5219 2.43317C10.5219 2.63866 10.3548 2.80584 10.1493 2.80584H1.03027ZM5.96244 3.46348V4.20878H5.21715V3.46348H5.96244ZM4.16493 5.23905C4.16493 5.03356 4.33211 4.86638 4.5376 4.86638H6.64199C6.84748 4.86638 7.01466 5.03356 7.01466 5.23905V5.61172H4.16497L4.16493 5.23905ZM8.41755 10.8507C8.41755 11.0562 8.25037 11.2234 8.04489 11.2234H3.13466C2.92917 11.2234 2.76199 11.0562 2.76199 10.8507V6.64195C2.76199 6.43646 2.92917 6.26928 3.13466 6.26928H8.04489C8.25037 6.26928 8.41755 6.43646 8.41755 6.64195V10.8507ZM15.4102 10.5219H9.07516V6.97077H15.4102C17.9365 6.97077 19.9916 9.02598 19.9916 11.5522V11.9248H16.4405V11.5522C16.4405 10.9841 15.9783 10.5219 15.4102 10.5219ZM20.3424 13.6566C20.3424 13.6687 20.3326 13.6785 20.3205 13.6785H16.1117C16.0996 13.6785 16.0898 13.6687 16.0898 13.6566V12.6044C16.0898 12.5923 16.0996 12.5825 16.1117 12.5825H20.3205C20.3326 12.5825 20.3424 12.5923 20.3424 12.6044V13.6566H20.3424Z" fill="#22401E"/>
    <path d="M19.3709 16.4636C18.9257 15.7514 18.4863 15.2221 18.4679 15.1999C18.4054 15.1249 18.3128 15.0815 18.2153 15.0815C18.1177 15.0815 18.0251 15.1249 17.9626 15.1999C17.9442 15.2221 17.5047 15.7514 17.0596 16.4636C16.4446 17.4476 16.1328 18.2733 16.1328 18.9177C16.1328 20.0659 17.067 21.0001 18.2153 21.0001C19.3635 21.0001 20.2977 20.0659 20.2977 18.9177C20.2977 18.2733 19.9859 17.4476 19.3709 16.4636ZM18.2153 20.3425C17.4296 20.3425 16.7904 19.7033 16.7904 18.9177C16.7904 18.0234 17.6665 16.6708 18.2153 15.9416C18.7643 16.6702 19.6401 18.022 19.6401 18.9177C19.6401 19.7033 19.0009 20.3425 18.2153 20.3425Z" fill="#22401E"/>
  </g>
  <defs>
    <clipPath id="clip0_145_1926">
      <rect width="21" height="21" fill="white"/>
    </clipPath>
  </defs>
</svg>