<svg width="9" height="9" viewBox="0 0 9 9" fill="none" xmlns="http://www.w3.org/2000/svg">
<g id="Base Icons - Rounded" clip-path="url(#clip0_156_1000)">
<path id="Vector" fill-rule="evenodd" clip-rule="evenodd" d="M7.29018 1.70685C6.92614 1.34265 6.49367 1.05404 6.01765 0.857646C5.54163 0.661253 5.03146 0.560952 4.51652 0.562518C2.35547 0.562518 0.59625 2.31295 0.595371 4.46486C0.594415 5.15008 0.775036 5.82332 1.11885 6.41604L0.5625 8.43752L2.64111 7.89488C3.21648 8.20659 3.86056 8.36972 4.51494 8.36949H4.51652C6.6774 8.36949 8.43645 6.61889 8.4375 4.46715C8.43881 3.95397 8.33805 3.44565 8.14108 2.97177C7.94411 2.49789 7.65486 2.06791 7.29018 1.70685ZM4.51652 7.71084H4.51512C3.93177 7.71101 3.35902 7.5549 2.85645 7.25873L2.73744 7.18842L1.50398 7.51045L1.83322 6.31356L1.7557 6.19051C1.42952 5.67409 1.2567 5.07566 1.25736 4.46486C1.25736 2.67664 2.72004 1.2217 4.51775 1.2217C5.38014 1.22016 6.20781 1.56123 6.81875 2.16988C7.42968 2.77854 7.77383 3.60494 7.77551 4.46732C7.7748 6.25572 6.31283 7.71084 4.51652 7.71084ZM6.30404 5.28172C6.20613 5.23285 5.72396 4.99695 5.63467 4.96443C5.54537 4.93191 5.47945 4.91557 5.41424 5.0133C5.34902 5.11104 5.16111 5.32971 5.10398 5.39563C5.04685 5.46154 4.98973 5.46875 4.89182 5.41988C4.79391 5.37102 4.47803 5.26818 4.10379 4.93596C3.81252 4.67738 3.616 4.35816 3.55887 4.26061C3.50174 4.16305 3.55271 4.11014 3.60176 4.06162C3.64588 4.01785 3.69967 3.94771 3.74871 3.89076C3.79775 3.83381 3.8141 3.79303 3.84662 3.72799C3.87914 3.66295 3.86297 3.606 3.83854 3.5573C3.8141 3.50861 3.61811 3.02855 3.53654 2.83326C3.45691 2.64307 3.37623 2.66891 3.31611 2.66592C3.25898 2.66311 3.19307 2.6624 3.1282 2.6624C3.07862 2.66369 3.02983 2.67519 2.98489 2.69618C2.93994 2.71717 2.89981 2.7472 2.86699 2.78439C2.77717 2.88213 2.52404 3.11838 2.52404 3.59791C2.52404 4.07744 2.87561 4.5415 2.92412 4.60654C2.97264 4.67158 3.61494 5.65649 4.59773 6.07889C4.78023 6.15704 4.9667 6.22557 5.15637 6.2842C5.39104 6.35838 5.60461 6.34801 5.77336 6.32287C5.96162 6.29492 6.35344 6.08697 6.43482 5.85916C6.51621 5.63135 6.51639 5.43623 6.49195 5.39563C6.46752 5.35502 6.40213 5.33041 6.30404 5.28172Z" fill="#FCFBFA"/>
</g>
<defs>
<clipPath id="clip0_156_1000">
<rect width="9" height="9" fill="white"/>
</clipPath>
</defs>
</svg>
