<svg xmlns="http://www.w3.org/2000/svg" width="16" height="16" viewBox="0 0 16 16" fill="none">
<path fill-rule="evenodd" clip-rule="evenodd" d="M12.9603 3.03438C12.3131 2.3869 11.5443 1.87382 10.698 1.52467C9.85178 1.17553 8.94482 0.997217 8.02938 1C4.1875 1 1.06 4.11188 1.05844 7.9375C1.05674 9.15567 1.37784 10.3525 1.98906 11.4063L1 15L4.69531 14.0353C5.71819 14.5895 6.86323 14.8795 8.02656 14.8791H8.02938C11.8709 14.8791 14.9981 11.7669 15 7.94157C15.0023 7.02924 14.8232 6.12556 14.473 5.28311C14.1229 4.44066 13.6086 3.67625 12.9603 3.03438ZM8.02938 13.7081H8.02687C6.98981 13.7084 5.97159 13.4309 5.07812 12.9044L4.86656 12.7794L2.67375 13.3519L3.25906 11.2241L3.12125 11.0053C2.54137 10.0872 2.23414 9.02337 2.23531 7.9375C2.23531 4.75844 4.83563 2.17188 8.03156 2.17188C9.56468 2.16914 11.0361 2.77548 12.1222 3.85754C13.2083 4.9396 13.8201 6.40876 13.8231 7.94188C13.8219 11.1213 11.2228 13.7081 8.02938 13.7081ZM11.2072 9.38969C11.0331 9.30282 10.1759 8.88344 10.0172 8.82563C9.85844 8.76782 9.74125 8.73875 9.62531 8.9125C9.50938 9.08626 9.17531 9.47501 9.07375 9.59219C8.97219 9.70938 8.87063 9.72219 8.69656 9.63532C8.5225 9.54844 7.96094 9.36563 7.29563 8.775C6.77781 8.31532 6.42844 7.74782 6.32688 7.57438C6.22531 7.40094 6.31594 7.30688 6.40312 7.22063C6.48156 7.14282 6.57719 7.01813 6.66437 6.91688C6.75156 6.81563 6.78062 6.74313 6.83844 6.6275C6.89625 6.51188 6.8675 6.41063 6.82406 6.32407C6.78062 6.2375 6.43219 5.38407 6.28719 5.03688C6.14563 4.69875 6.00219 4.74469 5.89531 4.73938C5.79375 4.73438 5.67656 4.73313 5.56125 4.73313C5.4731 4.73542 5.38636 4.75587 5.30647 4.79318C5.22657 4.83049 5.15522 4.88388 5.09688 4.95C4.93719 5.12375 4.48719 5.54375 4.48719 6.39625C4.48719 7.24875 5.11219 8.07375 5.19844 8.18938C5.28469 8.305 6.42656 10.0559 8.17375 10.8069C8.49819 10.9458 8.82968 11.0677 9.16687 11.1719C9.58406 11.3038 9.96375 11.2853 10.2638 11.2406C10.5984 11.1909 11.295 10.8213 11.4397 10.4163C11.5844 10.0113 11.5847 9.66438 11.5413 9.59219C11.4978 9.52001 11.3816 9.47626 11.2072 9.38969Z" fill="#22401E"/>
</svg>