<svg xmlns="http://www.w3.org/2000/svg" width="15" height="18" viewBox="0 0 15 18" fill="none">
  <g clip-path="url(#clip0_145_1609)">
    <path d="M11.1318 6.41797C9.98183 6.41797 9.84811 6.55011 9.84811 7.68653C9.84811 6.55011 9.7144 6.41797 8.56445 6.41797C9.7144 6.41797 9.84811 6.28583 9.84811 5.14941C9.84811 6.28583 9.98183 6.41797 11.1318 6.41797Z" fill="#22401E"/>
    <path d="M5.04607 11.3811C4.18227 11.3811 4.08065 11.4815 4.08065 12.3351C4.08065 11.4815 3.97903 11.3811 3.11523 11.3811C3.97903 11.3811 4.08065 11.2806 4.08065 10.427C4.08065 11.2806 4.18227 11.3811 5.04607 11.3811Z" fill="#22401E"/>
    <path d="M6.10033 13.173C5.55478 13.173 5.4906 13.2364 5.4906 13.7756C5.4906 13.2364 5.42641 13.173 4.88086 13.173C5.42641 13.173 5.4906 13.1096 5.4906 12.5704C5.4906 13.1096 5.55478 13.173 6.10033 13.173Z" fill="#22401E"/>
    <path d="M1.6372 0.4375H13.0056C13.4255 0.4375 13.7678 0.775782 13.7678 1.1907C13.7678 1.60563 13.4255 1.94391 13.0056 1.94391H1.41256C0.992699 1.94391 0.650391 1.60563 0.650391 1.1907C0.650391 0.775782 0.992699 0.4375 1.41256 0.4375" stroke="#22401E" stroke-width="0.4992" stroke-miterlimit="10"/>
    <path d="M13.1874 16.3286H1.23071C0.910209 16.3286 0.650391 16.5854 0.650391 16.9021V17.2615C0.650391 17.5783 0.910209 17.835 1.23071 17.835H13.1874C13.5079 17.835 13.7678 17.5783 13.7678 17.2615V16.9021C13.7678 16.5854 13.5079 16.3286 13.1874 16.3286Z" stroke="#22401E" stroke-width="0.4992" stroke-miterlimit="10"/>
    <path d="M13.0601 12.3566V16.3287H1.35742V1.94385H13.0601V12.0764" stroke="#22401E" stroke-width="0.4992" stroke-miterlimit="10"/>
    <path d="M6.69295 3.70435H2.53711V8.56185H6.69295V3.70435Z" stroke="#22401E" stroke-width="0.4992" stroke-miterlimit="10"/>
    <path d="M11.9254 3.70435H7.76953V8.56185H11.9254V3.70435Z" stroke="#22401E" stroke-width="0.4992" stroke-miterlimit="10"/>
    <path d="M6.64803 9.71149H2.49219V14.569H6.64803V9.71149Z" stroke="#22401E" stroke-width="0.4992" stroke-miterlimit="10"/>
    <path d="M11.8785 9.71167H7.72266V14.5692H11.8785V9.71167Z" stroke="#22401E" stroke-width="0.4992" stroke-miterlimit="10"/>
    <path d="M4.20156 4.58118L3.36719 5.46917" stroke="#22401E" stroke-width="0.4992" stroke-miterlimit="10"/>
    <path d="M5.90787 6.9762L5.07617 7.86154" stroke="#22401E" stroke-width="0.4992" stroke-miterlimit="10"/>
    <path d="M5.70181 4.78412L3.41797 7.3688" stroke="#22401E" stroke-width="0.4992" stroke-miterlimit="10"/>
    <path d="M9.36295 10.4983L8.53125 11.3863" stroke="#22401E" stroke-width="0.4992" stroke-miterlimit="10"/>
    <path d="M11.0727 12.8931L10.2383 13.7811" stroke="#22401E" stroke-width="0.4992" stroke-miterlimit="10"/>
    <path d="M10.8632 10.7014L8.58203 13.2861" stroke="#22401E" stroke-width="0.4992" stroke-miterlimit="10"/>
  </g>
  <defs>
    <clipPath id="clip0_145_1609">
      <rect width="15" height="18" fill="white"/>
    </clipPath>
  </defs>
</svg>