<svg xmlns="http://www.w3.org/2000/svg" width="89" height="111" viewBox="0 0 89 111" fill="none">
  <path d="M33.3239 24.2781C33.1185 21.3147 34.816 13.6512 44.266 13.6512C53.7161 13.6512 56.2029 22.76 56.2029 24.2781M33.3239 24.2781C33.1185 21.3147 32.4601 20.672 33.3239 15.6753C33.3239 15.6753 34.6142 12.4869 37.3072 9.99224M33.3239 24.2781C33.4802 26.5344 34.2635 33.5689 38.7993 36.7975M56.2029 24.2781C56.3796 20.9626 56.8016 19.1421 55.7056 15.6753C55.7056 15.6753 54.2309 12.4869 51.3937 9.99224M56.2029 24.2781C56.2029 25.4467 54.7296 33.2111 49.7415 36.7252M37.3072 9.99224C39.0377 8.38917 41.3474 7.07256 44.266 7.07256C47.1847 7.07256 49.5705 8.38916 51.3937 9.99224M37.3072 9.99224C37.3072 9.99224 36.8011 1 44.266 1C51.731 1 51.3937 9.99224 51.3937 9.99224M38.7993 36.7975C40.2209 37.8094 42.0111 38.4474 44.266 38.4474C46.4422 38.4474 48.2492 37.7765 49.7415 36.7252M38.7993 36.7975V41.4837M49.7415 36.7252V41.4837M38.7993 41.4837V41.9898C38.7993 41.9898 38.7906 50.5926 44.266 51.0986C49.7415 51.6047 49.7415 41.9898 49.7415 41.9898V41.4837M38.7993 41.4837C38.7993 41.4837 36.1483 41.9528 33.2321 42.4958M24.8729 69.8223C22.8825 69.8223 21.3913 70.8344 21.3913 70.8344M24.8729 69.8223L30.3449 57.6772M24.8729 69.8223C25.8285 69.8223 28.8467 70.4055 31.837 70.9559M30.3449 57.6772L33.2321 42.4958M30.3449 57.6772L31.837 70.9559M33.2321 42.4958C30.0906 43.0808 26.6415 43.7515 25.8677 44.014C24.3756 44.52 12.439 70.8344 11.4439 72.8586C10.4488 74.8828 10.9469 77.413 12.936 77.413C14.2059 77.413 24.5969 77.413 32.3344 77.413M31.837 70.9559C35.0757 71.5519 38.2817 72.1096 38.7993 71.8465C39.795 71.3405 40.7888 60.2074 40.7888 60.2074C41.8026 58.0244 44.2607 57.1712 44.266 57.6772C44.2713 58.1833 44.2713 73.3647 44.266 74.8828C44.2607 76.4009 42.2818 77.413 40.7888 77.413C40.2489 77.413 36.7174 77.413 32.3344 77.413M64.1661 69.8223C66.1565 69.8223 67.6477 70.8344 67.6477 70.8344M64.1661 69.8223L58.6941 57.6772M64.1661 69.8223C63.2106 69.8223 60.1924 70.4055 57.202 70.9559M58.6941 57.6772L55.8069 42.4958M58.6941 57.6772L57.202 70.9559M55.8069 42.4958C58.9484 43.0808 62.3975 43.7515 63.1714 44.014C64.6635 44.52 76.6001 70.8344 77.5951 72.8586C78.5902 74.8828 78.0922 77.413 76.103 77.413H55.8069M55.8069 42.4958L49.7415 41.4837M57.202 70.9559C53.9634 71.5519 50.7574 72.1096 50.2397 71.8465C49.2441 71.3405 48.2502 60.2074 48.2502 60.2074C47.2364 58.0244 44.7783 57.1712 44.773 57.6772C44.7677 58.1833 44.7677 73.3647 44.773 74.8828C44.7783 76.4009 46.7572 77.413 48.2502 77.413H55.8069M32.3344 77.413V82.4735M32.3344 82.4735H55.8069M32.3344 82.4735L6.96846 90.0642C6.96846 90.0642 1 92.5944 1 97.1488C1 101.703 12.4395 103.727 12.4395 103.727C14.4118 103.928 15.9147 104.015 17.4133 104.003M55.8069 82.4735V77.413M55.8069 82.4735L83.0663 90.0642C83.0663 90.0642 88.04 91.5823 88.04 96.6428C88.04 101.703 84.5584 103.727 83.0663 104.74C82.0976 105.397 74.8399 106.267 68.6425 106.797M21.8896 103.727L67.6477 97.1488M21.8896 103.727C20.1612 103.897 18.789 103.992 17.4133 104.003M21.8896 103.727C21.8896 103.727 18.9054 105.752 19.4027 107.776C19.9001 109.8 21.8896 109.8 21.8896 109.8C21.8896 109.8 36.3134 106.258 37.3081 106.258C38.3029 106.258 56.2082 107.27 60.6846 107.27C62.2548 107.27 65.2939 107.083 68.6425 106.797M67.6477 97.1488C67.6477 97.1488 69.1399 96.1367 69.1399 94.6186C69.1399 93.1005 67.6477 92.5944 67.6477 92.5944C67.6477 92.5944 54.2188 90.5702 52.2293 91.5823C50.2397 92.5944 49.245 95.6307 47.2555 95.6307C45.2661 95.6307 28.8528 91.5823 24.8729 91.0763C22.6684 90.796 19.3963 91.292 16.9159 91.7904M67.6477 97.1488C67.6477 97.1488 69.1399 98.667 69.6373 101.197C70.1346 103.727 68.6425 106.797 68.6425 106.797M13.4343 92.5944C13.4343 92.5944 14.9184 92.1917 16.9159 91.7904M16.9159 91.7904C16.9159 91.7904 14.9264 95.6307 14.9264 98.667C14.9264 101.703 17.4133 104.003 17.4133 104.003" stroke="#FCFBFA" stroke-width="1.2"/>
</svg>