<svg xmlns="http://www.w3.org/2000/svg" width="9" height="9" viewBox="0 0 9 9" fill="none">
  <g clip-path="url(#clip0_150_624)">
    <path d="M4.49994 4.10224L5.10551 3.49667C4.53641 2.83538 4.22376 1.99169 4.22449 1.11923C4.22449 1.03134 4.22783 0.942572 4.23398 0.85556C3.4549 0.91046 2.71413 1.21447 2.12109 1.72269L4.49994 4.10224Z" fill="#FCFBFA"/>
    <path d="M5.50443 3.09783L6.87887 1.72269C6.29442 1.22172 5.56619 0.918934 4.79885 0.857849C4.79164 0.943982 4.7876 1.03117 4.7876 1.11924C4.78688 1.84246 5.04064 2.54289 5.50443 3.09783Z" fill="#FCFBFA"/>
    <path d="M5.90234 3.49562C6.45721 3.95961 7.15764 4.21356 7.88094 4.21298C7.96883 4.21298 8.05672 4.20894 8.14233 4.20173C8.08135 3.4342 7.77856 2.70578 7.27748 2.12119L5.90234 3.49562Z" fill="#FCFBFA"/>
    <path d="M3.09789 5.50444C2.54304 5.04043 1.8426 4.78648 1.1193 4.78708C1.03117 4.78708 0.944043 4.79083 0.85791 4.79833C0.918886 5.56586 1.22168 6.29429 1.72275 6.87888L3.09789 5.50444Z" fill="#FCFBFA"/>
    <path d="M4.5001 4.89783L3.89453 5.50339C4.46363 6.16468 4.77628 7.00838 4.77555 7.88083C4.77555 7.96873 4.77221 8.05749 4.76605 8.14451C5.54515 8.08964 6.28592 7.78563 6.87895 7.27738L4.5001 4.89783Z" fill="#FCFBFA"/>
    <path d="M7.88096 4.77549C7.0085 4.77622 6.16481 4.46357 5.50352 3.89447L4.89795 4.50004L7.2775 6.87888C7.7861 6.28598 8.09049 5.5452 8.14568 4.76599C8.05762 4.77215 7.96955 4.77549 7.88096 4.77549Z" fill="#FCFBFA"/>
    <path d="M4.10223 4.50003L1.72268 2.12119C1.21404 2.71407 0.909653 3.45486 0.854492 4.23408C0.942383 4.22792 1.03027 4.22458 1.11816 4.22458C1.99062 4.22385 2.83431 4.5365 3.49561 5.1056L4.10223 4.50003Z" fill="#FCFBFA"/>
    <path d="M2.12109 7.27736C2.70554 7.77833 3.43377 8.08112 4.20111 8.1422C4.2085 8.05607 4.21225 7.96894 4.21236 7.88082C4.21297 7.15751 3.95901 6.45707 3.495 5.90222L2.12109 7.27736Z" fill="#FCFBFA"/>
  </g>
  <defs>
    <clipPath id="clip0_150_624">
      <rect width="9" height="9" fill="white"/>
    </clipPath>
  </defs>
</svg>