<svg width="9" height="9" viewBox="0 0 9 9" fill="none" xmlns="http://www.w3.org/2000/svg">
<g id="Base Icons - Rounded">
<path id="Vector" d="M7.45312 1.40628H1.54688C1.28589 1.40656 1.03567 1.51036 0.851125 1.69491C0.666579 1.87945 0.562779 2.12967 0.5625 2.39066V6.60941C0.562779 6.87039 0.666579 7.12061 0.851125 7.30516C1.03567 7.4897 1.28589 7.5935 1.54688 7.59378H7.45312C7.71411 7.5935 7.96433 7.4897 8.14888 7.30516C8.33342 7.12061 8.43722 6.87039 8.4375 6.60941V2.39066C8.43722 2.12967 8.33342 1.87945 8.14888 1.69491C7.96433 1.51036 7.71411 1.40656 7.45312 1.40628ZM7.20387 3.03454L4.67262 5.00329C4.62326 5.04166 4.56252 5.0625 4.5 5.0625C4.43748 5.0625 4.37674 5.04166 4.32738 5.00329L1.79613 3.03454C1.76639 3.01208 1.74141 2.98394 1.72264 2.95174C1.70388 2.91955 1.69169 2.88394 1.68681 2.84699C1.68192 2.81005 1.68442 2.7725 1.69417 2.73653C1.70392 2.70056 1.72072 2.66689 1.74359 2.63747C1.76647 2.60805 1.79496 2.58346 1.82742 2.56515C1.85988 2.54684 1.89565 2.53516 1.93266 2.53079C1.96967 2.52642 2.00718 2.52945 2.04301 2.53971C2.07884 2.54996 2.11227 2.56723 2.14137 2.59052L4.5 4.42497L6.85863 2.59052C6.91761 2.54598 6.99175 2.52645 7.06502 2.53614C7.13829 2.54584 7.20479 2.58398 7.25016 2.64233C7.29552 2.70067 7.3161 2.77453 7.30744 2.84793C7.29877 2.92132 7.26157 2.98836 7.20387 3.03454Z" fill="#FCFBFA"/>
</g>
</svg>
