<svg xmlns="http://www.w3.org/2000/svg" width="9" height="9" viewBox="0 0 9 9" fill="none">
  <g clip-path="url(#clip0_150_656)">
    <path d="M7.52344 3.93756H5.0625C4.83872 3.93756 4.62411 3.84867 4.46588 3.69043C4.30764 3.5322 4.21875 3.31759 4.21875 3.09381V0.632874C4.21875 0.614225 4.21134 0.596341 4.19816 0.583155C4.18497 0.569969 4.16709 0.562561 4.14844 0.562561H2.53125C2.23288 0.562561 1.94673 0.681088 1.73575 0.892066C1.52478 1.10304 1.40625 1.38919 1.40625 1.68756V7.31256C1.40625 7.61093 1.52478 7.89708 1.73575 8.10806C1.94673 8.31903 2.23288 8.43756 2.53125 8.43756H6.46875C6.76712 8.43756 7.05327 8.31903 7.26425 8.10806C7.47522 7.89708 7.59375 7.61093 7.59375 7.31256V4.00787C7.59375 3.98923 7.58634 3.97134 7.57316 3.95816C7.55997 3.94497 7.54209 3.93756 7.52344 3.93756Z" fill="#FCFBFA"/>
    <path d="M7.3691 3.31511L4.84119 0.787201C4.83628 0.782314 4.83002 0.778989 4.82322 0.777645C4.81642 0.776301 4.80938 0.776997 4.80297 0.779645C4.79657 0.782294 4.79109 0.786777 4.78722 0.792532C4.78336 0.798286 4.78128 0.805054 4.78125 0.811986V3.0938C4.78125 3.16839 4.81088 3.23993 4.86363 3.29268C4.91637 3.34542 4.98791 3.37505 5.0625 3.37505H7.34431C7.35124 3.37502 7.35801 3.37295 7.36377 3.36908C7.36952 3.36522 7.374 3.35974 7.37665 3.35333C7.3793 3.34692 7.38 3.33988 7.37865 3.33308C7.37731 3.32628 7.37398 3.32003 7.3691 3.31511Z" fill="#FCFBFA"/>
  </g>
  <defs>
    <clipPath id="clip0_150_656">
      <rect width="9" height="9" fill="white"/>
    </clipPath>
  </defs>
</svg>