<svg width="40" height="40" viewBox="0 0 40 40" fill="none" xmlns="http://www.w3.org/2000/svg">
<path fill-rule="evenodd" clip-rule="evenodd" d="M15.75 27.1251C17 27.8751 18.5 28.2501 20 28.2501C24.625 28.2501 28.25 24.5001 28.25 20.1251C28.25 17.8751 27.5 15.8751 25.875 14.2501C24.25 12.7501 22.25 11.8751 20 11.8751C15.5 11.8751 11.75 15.6251 11.75 20.1251C11.75 21.6251 12.125 23.1251 13 24.5001L13.25 24.8751L12.375 27.8751L15.5 27.0001L15.75 27.1251ZM22.75 21.2501C23 21.2501 24.25 21.8751 24.5 22.0001C24.5389 22.0195 24.5779 22.036 24.6163 22.0522C24.8248 22.1402 25.0195 22.2224 25.125 22.7501C25.25 22.7501 25.25 23.2501 25 23.8751C24.875 24.3751 23.875 25.0001 23.375 25.0001C23.2903 25.0001 23.2092 25.0072 23.1225 25.0149C22.6977 25.0525 22.14 25.1018 20.375 24.3751C18.1844 23.4988 16.6656 21.375 16.2392 20.7785C16.1789 20.6943 16.1405 20.6405 16.125 20.6251C16.1037 20.5825 16.0607 20.5146 16.0039 20.425C15.7274 19.9883 15.125 19.0372 15.125 18.0001C15.125 16.7501 15.75 16.1251 16 15.8751C16.25 15.6251 16.5 15.6251 16.625 15.6251H17.125C17.25 15.6251 17.5 15.6251 17.625 16.0001C17.875 16.5001 18.375 17.7501 18.375 17.8751C18.375 17.9167 18.3889 17.9584 18.4028 18.0001C18.4306 18.0834 18.4583 18.1667 18.375 18.2501C18.3125 18.3126 18.2813 18.3751 18.25 18.4376C18.2188 18.5001 18.1875 18.5626 18.125 18.6251L17.75 19.0001C17.625 19.1251 17.5 19.2501 17.625 19.5001C17.75 19.7501 18.25 20.6251 19 21.2501C19.8439 21.9885 20.5097 22.2818 20.8473 22.4305C20.9097 22.458 20.961 22.4805 21 22.5001C21.25 22.5001 21.375 22.5001 21.5 22.3751C21.5625 22.2501 21.7188 22.0626 21.875 21.8751C22.0312 21.6876 22.1875 21.5001 22.25 21.3751C22.375 21.1251 22.5 21.1251 22.75 21.2501Z" fill="#22401E"/>
<path fill-rule="evenodd" clip-rule="evenodd" d="M0 20.0001C0 8.95437 8.95431 6.10352e-05 20 6.10352e-05C31.0457 6.10352e-05 40 8.95437 40 20.0001C40 31.0458 31.0457 40.0001 20 40.0001C8.95431 40.0001 0 31.0458 0 20.0001ZM20 10.0001C22.625 10.0001 25.125 11.0001 27 12.8751C28.875 14.7501 30 17.2501 30 19.8751C30 25.3751 25.5 29.8751 20 29.8751C18.375 29.8751 16.75 29.3751 15.25 28.6251L10 30.0001L11.375 25.0001C10.5 23.5001 10 21.7501 10 20.0001C10 14.5001 14.5 10.0001 20 10.0001Z" fill="#22401E"/>
</svg>
